<?xml version="1.0" standalone="no"?>
<!DOCTYPE svg PUBLIC "-//W3C//DTD SVG 20010904//EN"
 "http://www.w3.org/TR/2001/REC-SVG-20010904/DTD/svg10.dtd">
<svg version="1.0" xmlns="http://www.w3.org/2000/svg"
 width="1547.000000pt" height="859.000000pt" viewBox="0 0 1547.000000 859.000000"
 preserveAspectRatio="xMidYMid meet">
<metadata>
Created by potrace 1.16, written by Peter Selinger 2001-2019
</metadata>
<g transform="translate(0.000000,859.000000) scale(0.100000,-0.100000)"
fill="#000000" stroke="none">
<path d="M7492 8395 c-52 -7 -98 -17 -102 -21 -5 -5 -39 -92 -75 -193 -80
-220 -128 -334 -156 -369 -13 -17 -16 -28 -9 -30 22 -8 138 10 157 23 17 13
16 15 -14 21 -37 7 -38 10 -19 79 29 112 67 155 135 155 39 0 52 -24 58 -104
4 -53 2 -66 -21 -98 -16 -24 -21 -38 -13 -38 7 0 87 9 178 20 185 23 195 28
184 95 -3 21 -8 41 -10 43 -11 11 -34 -10 -40 -37 -9 -42 -20 -48 -102 -56
l-73 -7 -11 28 c-6 16 -13 56 -16 89 -7 80 13 108 77 108 41 0 62 -13 73 -46
2 -6 9 -7 16 -2 10 6 12 26 9 77 -5 68 -24 110 -36 78 -18 -50 -122 -104 -149
-77 -7 7 -18 59 -26 117 -15 121 -18 117 83 119 52 1 56 -1 102 -46 l48 -47 0
29 c0 17 -3 47 -6 68 l-7 37 -71 -1 c-39 -1 -113 -7 -164 -14z m-60 -157 c4
-29 6 -70 2 -90 -5 -34 -10 -39 -46 -49 -22 -5 -42 -8 -45 -5 -3 2 2 26 10 53
9 26 23 74 32 107 19 69 33 65 47 -16z"/>
<path d="M8300 8365 c0 -4 7 -20 16 -37 19 -37 10 -96 -42 -281 -41 -144 -55
-172 -97 -193 l-32 -17 33 -14 c18 -7 78 -25 134 -39 79 -21 117 -25 177 -22
116 7 171 45 223 154 38 81 45 145 23 219 -28 97 -61 122 -246 183 -147 49
-189 59 -189 47z m281 -119 c53 -36 81 -99 81 -187 0 -121 -62 -213 -170 -255
-44 -16 -49 -16 -119 1 -40 10 -73 23 -73 29 0 6 27 103 59 215 40 138 65 209
77 219 26 19 99 8 145 -22z"/>
<path d="M6786 8229 l-59 -31 7 -101 c4 -56 11 -149 16 -207 4 -58 5 -109 0
-113 -4 -5 -25 6 -46 24 -36 31 -190 168 -256 228 l-28 25 -60 -29 c-69 -33
-94 -55 -63 -55 11 0 32 -9 46 -20 27 -22 163 -279 191 -363 15 -44 15 -51 0
-78 -15 -30 -15 -31 8 -24 44 14 125 53 132 63 3 6 -7 13 -24 17 -17 4 -41 21
-55 39 -28 37 -150 285 -143 292 3 2 41 -26 84 -64 224 -193 259 -222 268
-222 5 0 6 40 2 98 -14 177 -24 367 -20 371 2 2 37 -65 79 -150 74 -151 88
-202 63 -227 -9 -9 -7 -12 11 -12 25 0 161 68 161 80 0 5 -13 11 -30 15 -36 8
-53 31 -117 160 -96 192 -111 243 -88 298 10 25 -10 21 -79 -14z"/>
<path d="M9007 8087 c14 -86 -181 -437 -243 -437 -25 0 -15 -14 29 -41 100
-63 159 -83 127 -44 -21 26 -5 90 53 208 68 139 137 234 179 249 30 11 30 12
12 26 -25 19 -136 72 -151 72 -8 0 -10 -11 -6 -33z"/>
<path d="M5974 7733 c-60 -56 -127 -120 -149 -143 -39 -42 -39 -42 -12 -36 37
9 71 -11 138 -81 120 -125 199 -233 199 -273 1 -58 14 -55 106 23 49 42 113
97 142 125 49 45 52 51 42 76 -14 38 -43 75 -57 76 -9 0 -13 -19 -13 -62 0
-61 0 -61 -52 -109 -29 -27 -58 -49 -63 -49 -6 0 -44 34 -85 75 l-75 76 48 46
c48 45 49 46 104 39 l55 -6 -20 27 c-34 46 -89 103 -101 103 -6 0 -11 -15 -11
-34 0 -27 -10 -46 -49 -88 l-49 -53 -59 64 c-105 117 -102 103 -36 156 78 64
100 71 134 46 49 -36 46 12 -4 73 l-24 29 -109 -100z"/>
<path d="M9343 7816 c-63 -20 -107 -51 -163 -114 -71 -79 -87 -152 -55 -258
19 -66 98 -139 213 -198 l34 -17 53 50 c44 42 60 51 89 51 20 0 36 3 36 8 0
12 -43 57 -102 107 l-58 47 6 -59 7 -60 -44 -42 -44 -42 -43 48 c-57 63 -82
116 -82 179 0 60 32 116 104 182 83 76 152 90 241 48 28 -13 64 -38 79 -57 27
-31 28 -37 22 -99 l-6 -65 51 55 51 55 -69 64 c-109 103 -229 146 -320 117z"/>
<path d="M7950 7510 c-58 -4 -250 -8 -426 -9 -321 -1 -322 -1 -433 -30 -61
-16 -118 -34 -126 -41 -20 -16 -38 -86 -29 -113 3 -12 13 -30 22 -40 8 -9 13
-19 11 -20 -2 -2 -56 -38 -120 -80 -184 -120 -260 -223 -246 -331 l6 -41 -84
4 c-105 4 -157 -13 -246 -78 -152 -112 -264 -299 -342 -571 -111 -385 -95
-929 40 -1330 40 -121 153 -361 188 -400 7 -8 28 -40 47 -72 117 -199 263
-364 369 -417 120 -60 224 -29 281 82 l14 28 50 -46 c27 -26 80 -69 117 -97
65 -49 68 -53 62 -82 -10 -41 -11 -67 -2 -92 7 -20 3 -21 -59 -27 -75 -7 -106
-23 -135 -70 -26 -42 -21 -108 12 -143 57 -61 180 -104 299 -104 133 0 378 42
501 85 l65 23 110 -32 c167 -50 305 -69 469 -64 130 3 144 5 195 31 90 47 100
60 100 138 0 64 -2 68 -34 97 -34 29 -48 34 -132 47 l-40 6 0 68 1 69 83 62
c46 35 97 76 114 92 16 15 31 28 32 28 2 0 8 -18 15 -39 26 -87 118 -134 221
-112 68 15 84 24 154 90 141 134 332 413 437 635 184 393 244 922 159 1396
-21 113 -88 334 -131 425 -71 153 -217 312 -331 359 -76 32 -195 28 -280 -8
-15 -7 -16 -2 -11 47 9 85 -15 141 -90 213 -80 78 -128 115 -221 167 l-75 43
21 22 c15 14 23 37 26 75 6 75 -17 100 -123 127 -69 18 -317 43 -380 38 -11
-1 -67 -5 -125 -8z m478 -53 c104 -30 133 -61 118 -123 -11 -42 -55 -56 -138
-43 -46 7 -159 9 -313 6 -225 -4 -250 -7 -403 -39 l-163 -35 6 29 c9 40 -3 84
-31 118 l-25 29 38 10 c71 19 178 39 268 50 50 6 101 13 115 15 14 3 126 3
250 1 163 -2 239 -7 278 -18z m-868 4 c-8 -5 -59 -21 -114 -36 -90 -24 -268
-84 -389 -131 l-49 -19 -19 24 c-30 37 -25 78 14 101 36 23 114 48 185 60 65
11 391 12 372 1z m-102 -101 c49 -30 58 -64 32 -125 -12 -27 -24 -56 -27 -62
-4 -9 8 -13 40 -13 36 0 49 -5 61 -22 23 -32 20 -70 -9 -112 l-24 -36 54 0
c44 0 56 -4 65 -20 26 -49 -3 -92 -77 -115 -21 -6 -23 -3 -23 30 0 42 -34 80
-81 90 -24 5 -29 12 -29 35 0 16 -4 40 -10 54 -11 30 -65 66 -97 66 -20 0 -22
4 -17 30 10 46 -4 97 -36 134 -30 34 -30 46 1 46 9 0 36 9 60 20 56 25 76 25
117 0z m-220 -76 c40 -27 55 -71 43 -119 -6 -23 -13 -50 -17 -59 -5 -14 2 -16
48 -16 85 0 105 -39 73 -137 -7 -22 -5 -22 43 -16 42 5 53 2 71 -16 27 -27 27
-50 -2 -92 -30 -44 -51 -48 -66 -11 -16 38 -65 65 -116 64 -42 0 -43 0 -48 39
-10 74 -62 119 -137 119 -29 0 -30 1 -30 48 0 61 -17 92 -64 118 -44 25 -44
25 58 65 82 32 113 35 144 13z m1126 -23 c49 -12 59 -23 59 -61 0 -58 -9 -61
-249 -70 -183 -7 -244 -13 -370 -39 -82 -16 -157 -33 -166 -36 -12 -5 -17 3
-22 39 -4 24 -16 56 -28 71 -11 14 -18 28 -16 30 7 8 198 46 298 60 109 15
436 19 494 6z m156 -50 c0 -5 -8 -11 -17 -15 -10 -3 -24 -9 -30 -12 -9 -4 -13
5 -13 30 l0 37 30 -16 c17 -9 30 -19 30 -24z m-1500 -36 c52 -27 63 -76 35
-155 -14 -39 -14 -42 3 -35 33 14 109 17 130 6 38 -20 54 -64 42 -117 -6 -26
-8 -49 -5 -52 3 -3 21 2 40 11 44 21 68 21 104 2 76 -39 45 -173 -43 -189 -19
-4 -45 -15 -59 -26 -14 -11 -29 -20 -33 -20 -4 0 -20 -15 -35 -32 l-28 -33 -1
45 c0 26 -8 58 -19 76 -38 62 -164 96 -326 87 -78 -4 -94 -2 -122 16 -33 21
-73 86 -73 118 1 79 124 212 264 287 56 30 85 32 126 11z m1630 -32 c90 -54
203 -166 225 -225 31 -85 -2 -160 -80 -178 -22 -5 -88 -10 -146 -10 -162 0
-252 -35 -292 -113 l-20 -38 -27 26 c-29 28 -77 45 -127 45 -41 0 -63 30 -63
86 0 79 78 120 150 79 38 -22 40 -19 25 26 -22 61 -19 77 20 116 31 31 40 35
78 31 23 -3 51 -8 61 -13 17 -7 18 -5 12 16 -19 63 -19 109 0 131 26 29 75 58
99 58 11 0 49 -17 85 -37z m-240 -72 c0 -37 -2 -39 -36 -45 -19 -4 -42 -10
-50 -13 -11 -4 -14 5 -14 40 l0 46 48 4 c26 2 48 4 50 5 1 1 2 -15 2 -37z
m-148 12 c23 -20 23 -45 0 -66 -13 -12 -53 -19 -143 -26 -80 -7 -175 -23 -268
-46 -79 -20 -145 -35 -147 -32 -2 2 -5 17 -6 33 -1 16 -10 38 -20 48 -10 11
-18 23 -18 27 0 9 66 24 220 49 157 26 162 27 269 29 75 1 98 -2 113 -16z m-6
-144 c-3 -17 -6 -39 -6 -49 0 -13 -11 -19 -40 -24 -59 -9 -88 -26 -111 -63
-16 -26 -24 -31 -37 -24 -58 31 -71 92 -29 132 19 18 30 20 74 15 47 -5 51 -4
46 13 -4 17 1 20 38 24 24 2 50 4 58 5 10 2 12 -6 7 -29z m-270 -31 c-8 -18
-17 -41 -20 -51 -5 -16 -8 -16 -43 -2 -48 20 -70 42 -57 55 10 10 76 27 111
29 22 1 22 0 9 -31z m-164 -54 c15 -8 33 -14 40 -14 20 0 139 -59 176 -86 31
-24 68 -81 59 -90 -3 -3 -26 9 -51 27 -60 43 -118 44 -194 5 l-53 -27 -40 35
c-26 24 -49 36 -69 36 -47 0 -122 -29 -155 -61 -30 -29 -61 -35 -98 -21 -17 7
-16 10 6 51 23 45 60 72 167 122 104 50 150 54 212 23z m1320 -75 c29 -6 60
-17 69 -25 8 -8 20 -14 26 -14 18 0 168 -153 207 -210 54 -82 48 -157 -17
-218 -36 -34 -85 -38 -135 -13 l-42 21 0 -20 c0 -75 -81 -142 -143 -120 -18 6
-48 27 -69 47 l-37 36 -5 -27 c-3 -14 -9 -38 -12 -53 -3 -14 -20 -41 -39 -60
-28 -28 -40 -33 -79 -33 -25 0 -46 5 -46 10 0 6 -5 10 -12 10 -6 0 -20 8 -30
17 -14 13 -21 14 -30 5 -16 -16 25 -59 66 -68 69 -15 113 -7 155 28 23 18 41
40 41 48 1 35 15 40 55 20 22 -11 52 -20 68 -20 44 0 105 37 133 81 19 31 28
38 38 30 20 -17 111 6 148 37 17 14 39 44 49 66 l18 40 19 -44 c39 -93 74
-211 68 -234 -9 -36 -65 -94 -101 -106 -25 -8 -43 -7 -76 4 -24 9 -47 16 -50
16 -3 0 -13 -18 -23 -39 -40 -91 -145 -110 -220 -41 -24 22 -48 40 -55 40 -6
0 -18 -18 -27 -40 -37 -92 -133 -120 -209 -60 -21 17 -41 30 -46 30 -19 0 -17
-21 5 -47 33 -40 119 -61 175 -44 36 10 93 61 103 91 2 8 16 4 42 -13 41 -29
108 -43 154 -33 27 6 112 79 112 97 0 4 30 5 68 2 l67 -5 52 46 51 46 11 -62
c40 -240 36 -297 -26 -355 -27 -26 -43 -33 -74 -33 -61 0 -94 22 -125 86 l-28
56 -23 -48 c-31 -67 -64 -94 -113 -94 -53 0 -106 46 -122 106 -7 24 -15 44
-18 44 -3 0 -15 -15 -27 -34 -11 -18 -37 -40 -57 -50 -31 -15 -39 -15 -68 -3
-18 8 -46 31 -61 51 -16 20 -33 34 -38 31 -5 -4 -9 -41 -9 -83 0 -75 -24 -311
-39 -382 -7 -33 -10 -35 -71 -50 -53 -12 -73 -23 -121 -68 -32 -30 -83 -87
-114 -127 -30 -41 -67 -83 -81 -94 -25 -20 -83 -28 -97 -15 -3 4 9 37 28 75
38 74 85 224 85 269 0 15 8 37 18 49 16 21 19 21 59 7 55 -19 80 -11 103 34
11 21 31 42 48 49 38 16 54 53 47 106 -10 66 -21 75 -48 41 -14 -17 -29 -26
-35 -22 -13 8 -16 56 -4 56 11 0 39 85 47 142 5 41 9 47 35 53 31 7 50 40 54
98 4 44 -13 53 -55 31 -54 -27 -61 -10 -58 135 2 82 -1 133 -9 147 -9 18 -8
24 8 39 41 37 70 95 100 200 18 61 38 120 46 132 8 12 14 29 14 36 0 21 75
102 117 128 36 22 110 47 145 48 9 1 41 -4 70 -10z m-2509 -32 c86 -51 151
-150 177 -271 15 -74 41 -134 81 -192 28 -42 30 -47 18 -82 -7 -22 -11 -78
-10 -137 2 -98 -8 -155 -28 -155 -6 0 -19 9 -29 21 -16 17 -22 18 -34 7 -7 -7
-21 -17 -30 -23 -9 -5 -32 -23 -51 -38 -62 -49 -141 -37 -184 29 -9 14 -24 49
-33 77 l-17 52 -21 -41 c-33 -64 -74 -94 -131 -94 -56 0 -89 21 -127 81 -21
33 -27 38 -44 29 -32 -17 -105 -12 -133 10 -39 31 -71 104 -63 148 5 32 68
197 80 209 2 2 13 -16 25 -40 35 -72 60 -89 140 -95 66 -4 72 -7 93 -37 12
-18 34 -40 49 -49 34 -20 108 -21 154 -2 l33 14 27 -39 c35 -53 79 -79 136
-79 50 0 111 33 117 63 4 21 -21 23 -38 2 -7 -8 -19 -15 -26 -15 -8 0 -14 -4
-14 -10 0 -5 -17 -10 -38 -10 -64 0 -117 56 -137 144 l-6 29 -38 -37 c-73 -71
-162 -58 -197 29 -16 38 -22 45 -39 40 -90 -27 -149 -7 -185 65 -22 43 -30
107 -14 118 5 4 18 25 29 47 34 68 160 186 245 229 70 35 80 38 146 33 54 -3
83 -10 117 -30z m387 -53 c34 -10 67 -29 88 -50 32 -32 34 -38 29 -83 -6 -55
-25 -100 -62 -150 -23 -31 -46 -94 -60 -163 -7 -38 -26 -35 -62 10 -66 82
-112 195 -151 372 -3 13 -16 33 -30 44 -23 19 -24 20 -6 27 36 14 198 10 254
-7z m720 -21 c32 -41 22 -89 -26 -128 -102 -84 -103 -85 -125 -176 -12 -48
-29 -101 -40 -118 -57 -95 -197 -94 -242 2 -19 40 -22 89 -7 118 14 25 27 24
35 -1 10 -32 34 -50 65 -50 37 0 46 16 71 132 37 171 101 248 206 248 33 0 46
-5 63 -27z m1045 -36 c-19 -35 -43 -97 -54 -139 -26 -106 -60 -174 -119 -238
-58 -63 -66 -61 -80 20 -16 87 -29 111 -89 167 -50 47 -56 57 -60 100 -5 43
-2 51 23 77 60 59 114 73 296 75 l118 1 -35 -63z m-775 36 c79 -52 113 -105
129 -204 18 -101 38 -148 68 -155 32 -8 54 4 72 41 12 25 15 26 29 11 20 -20
21 -105 2 -140 -14 -27 -83 -66 -115 -66 -10 0 -38 9 -62 21 -50 24 -83 79
-102 167 -17 83 -72 172 -104 172 -24 0 -67 58 -67 91 0 66 89 103 150 62z
m-195 -110 c1 -38 6 -81 13 -97 l13 -29 27 26 c25 24 29 25 55 11 34 -18 37
-64 6 -95 -51 -51 -179 25 -179 107 0 14 57 144 63 144 1 0 2 -30 2 -67z
m-335 53 c0 -2 -6 -21 -14 -42 -7 -22 -19 -70 -25 -108 -14 -79 -25 -106 -46
-106 -19 0 -38 37 -32 61 9 33 -47 19 -86 -23 -15 -15 -18 -32 -16 -88 2 -64
0 -71 -24 -90 -17 -13 -34 -47 -52 -99 -14 -43 -35 -87 -46 -97 -19 -17 -20
-17 -47 2 -28 21 -72 96 -72 124 0 8 9 29 20 47 18 31 20 32 46 18 54 -28 76
9 89 150 13 136 33 175 114 226 39 25 55 29 118 29 40 0 73 -2 73 -4z m758
-11 c84 -36 118 -91 132 -216 5 -52 15 -115 21 -141 10 -43 14 -48 39 -48 15
0 33 7 40 15 7 8 16 15 20 15 15 0 40 -69 40 -110 0 -34 -6 -48 -33 -75 -26
-26 -39 -32 -60 -28 -15 3 -31 13 -36 22 -12 23 -32 140 -41 244 -8 93 -19
116 -72 143 -37 19 -38 19 -38 -24 0 -35 -14 -62 -32 -62 -13 0 -34 61 -42
117 -3 28 -15 76 -25 107 l-18 56 34 0 c18 0 50 -7 71 -15z m-378 -85 c0 -5
-4 -10 -10 -10 -5 0 -10 5 -10 10 0 6 5 10 10 10 6 0 10 -4 10 -10z m-140 -70
c0 -46 -10 -53 -60 -41 l-35 8 39 36 c22 20 44 37 48 37 4 0 8 -18 8 -40z
m-576 -82 c-3 -35 -11 -78 -16 -97 -9 -30 -12 -33 -23 -18 -7 9 -22 17 -34 17
-19 0 -21 4 -15 23 16 52 68 137 85 137 5 0 6 -27 3 -62z m1293 40 c22 -25 46
-68 58 -107 6 -20 4 -23 -9 -18 -12 5 -20 -1 -28 -18 -17 -38 -36 -30 -42 18
-20 160 -18 168 21 125z m-657 -83 c0 -48 -39 -85 -90 -85 -66 0 -94 42 -70
104 11 31 44 34 79 10 19 -14 25 -14 32 -3 5 8 9 20 9 28 0 11 5 10 20 -4 12
-11 20 -31 20 -50z m219 20 c1 -6 -19 -15 -44 -21 -51 -12 -59 -2 -16 20 16 9
32 23 36 33 7 17 8 17 15 -2 5 -11 9 -25 9 -30z m-121 -42 c28 -35 31 -36 56
-25 55 25 94 5 82 -43 -18 -71 -92 -87 -152 -32 -31 28 -37 41 -42 85 -6 65
12 70 56 15z m-268 -77 c0 -8 12 -16 27 -18 43 -5 41 -28 -4 -28 -50 0 -67 12
-58 39 7 24 35 29 35 7z m313 -84 c48 -4 62 -1 80 15 37 33 46 35 76 14 16
-12 39 -25 52 -29 20 -8 22 -16 23 -66 1 -52 4 -61 34 -87 26 -24 41 -29 81
-29 81 0 154 -54 84 -62 -32 -3 -31 5 -14 -153 9 -81 16 -108 40 -146 57 -92
63 -157 12 -130 -20 11 -21 9 -21 -25 0 -20 9 -52 21 -71 27 -43 21 -108 -22
-237 -61 -184 -185 -318 -413 -447 -53 -29 -68 -33 -141 -33 l-81 -1 -167 84
c-205 102 -241 133 -315 277 -28 56 -58 128 -67 160 -19 74 -19 171 0 217 8
20 15 50 15 67 0 26 -3 30 -19 25 -36 -11 -44 26 -16 76 61 113 73 167 61 281
-6 57 -10 64 -28 64 -31 -1 -34 22 -5 33 14 6 28 14 31 20 4 5 31 9 61 8 47
-2 58 2 80 24 33 33 46 105 21 115 -9 3 -23 1 -31 -6 -25 -21 -47 -4 -43 32 2
27 7 32 23 30 82 -12 121 -13 158 -2 37 10 50 9 83 -5 54 -22 93 -13 156 39
l53 44 40 -46 c38 -42 45 -45 98 -50z m-962 51 c13 -16 12 -17 -3 -4 -10 7
-18 15 -18 17 0 8 8 3 21 -13z m319 -51 c0 -65 11 -82 52 -82 32 0 36 -15 11
-42 -20 -23 -78 -24 -87 -2 -8 21 -8 169 1 177 16 17 23 3 23 -51z m1064 22
c10 -26 6 -88 -7 -113 -6 -13 -24 -33 -39 -44 -34 -25 -70 -17 -99 24 l-22 31
29 -2 c49 -3 53 -1 65 43 11 39 40 77 59 77 4 0 11 -7 14 -16z m-1363 -45 c49
-52 33 -69 -20 -22 -31 27 -41 53 -20 53 6 0 24 -14 40 -31z m1639 12 c0 -15
-47 -67 -54 -60 -3 3 -3 20 0 37 5 25 12 32 30 32 13 0 24 -4 24 -9z m-380
-21 c0 -25 -21 -26 -51 0 l-24 19 38 1 c30 0 37 -3 37 -20z m-2208 -132 c13
-6 50 -12 84 -13 57 -1 63 -3 93 -37 63 -72 159 -85 237 -32 l36 25 34 -40
c64 -74 151 -88 228 -36 l37 25 11 -25 c6 -14 26 -33 43 -44 26 -15 34 -27 39
-62 4 -24 18 -68 31 -98 40 -85 29 -127 -18 -71 -14 16 -28 30 -30 30 -10 0
-27 -64 -27 -97 0 -26 8 -41 30 -61 17 -15 49 -46 72 -69 47 -48 81 -55 116
-23 22 21 49 25 68 12 6 -4 14 -37 17 -74 9 -95 33 -182 74 -266 20 -40 34
-75 31 -77 -2 -3 -18 -7 -34 -10 -44 -9 -85 23 -143 108 -86 128 -183 207
-253 207 -14 0 -30 6 -36 13 -14 17 -31 148 -42 326 -5 85 -12 156 -15 159 -3
3 -21 -13 -41 -36 -61 -72 -135 -65 -191 20 l-28 41 -11 -56 c-12 -63 -24 -81
-67 -103 -59 -31 -139 7 -166 78 -13 34 -35 28 -56 -13 -56 -107 -165 -106
-219 3 -31 62 -34 125 -11 268 21 130 20 129 55 82 16 -23 40 -47 52 -54z
m961 64 c31 -5 33 -13 14 -50 -8 -15 -24 -49 -38 -76 -24 -50 -68 -86 -104
-86 -26 0 -45 18 -45 41 0 15 6 17 34 12 55 -9 76 20 76 108 0 64 2 70 18 64
9 -4 29 -10 45 -13z m221 -15 c-3 -12 -23 -38 -44 -58 -43 -41 -44 -69 -4 -96
25 -16 32 -47 13 -58 -5 -4 -30 -10 -55 -13 -42 -6 -47 -10 -59 -45 -20 -57
-33 -68 -78 -65 -37 3 -67 28 -34 28 34 0 47 29 47 101 0 50 6 86 22 122 12
29 23 53 24 55 1 2 20 -2 43 -9 34 -10 44 -10 66 5 14 9 31 28 37 41 13 29 31
22 22 -8z m1396 -27 c0 -85 42 -133 99 -115 22 7 27 -7 15 -39 -7 -18 -55 -21
-85 -6 -25 14 -63 74 -83 135 -18 53 -13 65 32 65 19 0 22 -5 22 -40z m-211
-6 c21 -11 44 -14 70 -9 l38 6 26 -58 c22 -50 25 -67 20 -126 l-6 -68 32 -12
c33 -12 35 -24 8 -41 -12 -8 -22 -7 -34 2 -10 7 -25 15 -34 18 -17 6 -39 45
-39 69 0 17 -30 34 -48 28 -24 -9 -59 6 -70 31 -10 21 -8 25 13 30 52 13 54
76 4 102 -29 14 -35 25 -22 37 8 9 5 10 42 -9z m-1434 -204 c0 -21 -4 -25 -29
-23 -38 3 -43 9 -21 33 25 27 50 22 50 -10z m1673 -3 c4 -17 -33 -41 -48 -32
-11 7 -14 48 -4 58 10 10 49 -9 52 -26z m-1461 -125 c-79 -147 -82 -159 -38
-203 28 -28 29 -30 12 -50 -14 -18 -20 -19 -44 -8 -41 19 -71 83 -71 154 0 49
7 73 39 137 36 73 41 77 74 80 36 3 36 3 39 -40 2 -24 -3 -54 -11 -70z m1268
81 c6 -9 20 -28 33 -43 36 -45 52 -95 52 -164 0 -74 -10 -105 -41 -135 -28
-26 -51 -27 -74 -1 -16 18 -17 20 -1 20 9 0 24 16 33 35 20 42 9 89 -38 162
-23 37 -29 58 -29 100 0 53 0 53 28 47 15 -3 32 -13 37 -21z m545 -113 c14 0
42 8 61 18 l36 18 -4 -50 c-6 -73 -30 -228 -50 -319 -15 -71 -18 -78 -37 -73
-130 34 -146 40 -146 55 0 18 29 307 36 357 l4 32 37 -19 c21 -11 49 -19 63
-19z m-2982 -59 c44 -12 87 -3 131 28 l29 21 7 -103 c18 -270 48 -414 130
-617 56 -140 103 -230 167 -326 30 -43 86 -126 125 -184 39 -58 110 -152 158
-208 96 -114 98 -123 48 -183 -29 -34 -78 -59 -116 -59 -54 0 -144 59 -234
153 -48 51 -95 106 -103 122 -8 17 -30 50 -49 75 -18 25 -41 61 -50 80 -9 19
-23 43 -31 52 -31 35 -111 179 -160 289 -105 234 -142 425 -165 839 l-6 115
40 -42 c25 -25 56 -46 79 -52z m512 74 c32 -18 92 -19 134 -1 l34 14 7 -86 c3
-48 13 -134 21 -191 8 -58 14 -108 14 -113 0 -4 -15 -8 -32 -8 -18 -1 -57 -9
-86 -19 -29 -10 -54 -15 -57 -11 -7 12 -44 203 -55 290 -6 47 -13 97 -15 113
-5 31 0 32 35 12z m481 5 c13 0 14 -7 5 -51 -8 -41 -7 -62 7 -112 31 -107 31
-104 9 -116 -29 -15 -52 -3 -59 30 -4 21 -14 31 -40 40 -38 12 -68 51 -59 74
5 14 9 14 32 -2 26 -17 27 -16 46 7 20 25 22 82 3 124 -7 17 -5 18 16 13 13
-4 31 -7 40 -7z m1604 -17 c-18 -44 -22 -70 -14 -91 11 -28 56 -47 75 -31 11
9 14 6 14 -14 0 -26 -40 -67 -65 -67 -7 0 -18 -14 -24 -30 -11 -32 -32 -46
-56 -37 -12 5 -11 13 6 53 17 38 20 62 17 140 l-3 94 29 0 c23 0 27 -3 21 -17z
m1075 -78 c1 -299 -99 -746 -212 -955 -67 -123 -224 -367 -293 -455 -79 -102
-185 -200 -232 -216 -59 -19 -138 -7 -173 26 -34 32 -54 85 -45 115 4 12 50
74 103 138 53 65 107 131 120 147 200 261 243 332 301 487 100 269 134 423
147 661 4 64 9 117 12 117 2 0 21 -10 40 -22 55 -34 120 -31 173 9 52 37 59
32 59 -52z m-470 24 c41 -15 93 -4 130 27 l30 26 0 -55 c0 -31 -9 -129 -21
-219 -28 -221 -121 -524 -201 -657 -18 -29 -39 -65 -46 -78 -23 -41 -24 -20
-3 58 11 41 22 105 26 142 8 80 -12 246 -32 266 -8 7 -23 31 -34 53 -19 37
-19 43 -5 86 12 39 39 201 63 370 l4 33 29 -21 c16 -11 43 -26 60 -31z m-2750
2 c0 -43 31 -231 54 -326 l15 -60 -40 -80 c-69 -141 -77 -215 -44 -405 l6 -35
-25 45 c-14 25 -25 53 -26 63 0 9 -4 17 -9 17 -11 0 -103 225 -124 305 -27 98
-47 242 -54 377 l-6 127 39 -19 c54 -28 121 -26 164 5 19 13 38 24 43 25 4 0
7 -18 7 -39z m396 -380 c50 -23 134 -101 134 -124 0 -9 4 -17 10 -17 15 0 68
-99 80 -151 10 -41 9 -52 -9 -88 -23 -45 -64 -71 -110 -71 -26 0 -31 -4 -36
-34 -4 -18 -20 -50 -37 -70 -24 -30 -36 -36 -67 -36 -20 0 -47 7 -59 16 -21
15 -22 14 -28 -15 -7 -36 -65 -91 -95 -91 -42 0 -88 28 -107 67 -49 98 -67
174 -67 288 0 106 1 113 36 186 41 85 89 146 122 152 12 2 60 5 107 5 64 1 95
-3 126 -17z m2085 2 c32 -12 51 -30 80 -76 22 -33 39 -65 39 -72 0 -7 7 -27
16 -45 14 -26 16 -55 12 -159 -9 -214 -65 -331 -159 -331 -35 0 -49 6 -76 32
-18 18 -33 40 -33 50 0 16 -6 18 -47 13 -38 -5 -55 -2 -80 14 -42 26 -67 74
-53 100 15 29 14 29 -33 24 -83 -10 -146 55 -133 135 16 99 135 250 238 301
72 36 160 42 229 14z m-1726 -299 c52 6 53 5 80 -30 35 -46 137 -111 281 -181
124 -60 144 -80 144 -148 0 -65 -34 -107 -99 -125 -55 -15 -111 1 -161 46 -39
35 -61 32 -40 -5 16 -31 12 -76 -11 -105 -27 -35 -71 -34 -117 1 l-35 26 7
-29 c17 -76 18 -102 2 -131 -21 -43 -74 -53 -117 -23 -23 17 -33 19 -43 11
-11 -10 -9 -17 15 -41 33 -33 39 -82 14 -130 -19 -37 -43 -50 -93 -50 -33 0
-50 9 -114 64 -42 36 -85 78 -97 95 l-22 31 28 10 c82 30 105 58 113 134 l5
51 44 7 c56 10 98 49 113 105 10 42 12 43 50 43 79 0 126 39 142 117 9 40 -8
105 -34 128 -17 16 -20 16 -26 2 -3 -9 1 -26 10 -39 27 -38 21 -102 -13 -140
-29 -32 -53 -37 -131 -26 -23 3 -25 0 -30 -51 -5 -44 -11 -58 -38 -82 -35 -31
-88 -39 -110 -17 -22 22 -36 -5 -22 -44 20 -55 6 -103 -38 -133 -20 -14 -43
-25 -50 -25 -28 0 -93 42 -114 73 -87 128 -108 162 -108 179 0 11 5 18 13 15
25 -8 83 16 117 49 29 27 46 34 95 40 33 4 67 14 76 23 25 24 59 84 59 104 0
12 8 17 26 17 66 0 134 84 134 164 0 35 1 36 22 25 13 -7 41 -9 73 -5z m1183
-6 l42 4 0 -39 c0 -61 29 -104 94 -136 38 -20 66 -42 86 -73 36 -51 74 -74
124 -74 27 0 40 -6 52 -25 27 -42 81 -68 135 -67 27 0 49 -1 49 -4 0 -12 -124
-187 -158 -223 -53 -55 -98 -57 -149 -6 -35 35 -36 38 -30 94 l5 59 -55 -2
c-50 -1 -57 2 -85 33 -27 30 -29 38 -26 92 2 33 1 59 -2 59 -3 -1 -16 -7 -30
-15 -34 -19 -90 -19 -119 1 -49 34 -61 113 -23 156 14 17 11 48 -5 48 -18 -1
-47 -56 -50 -99 -6 -64 20 -110 77 -138 24 -13 57 -23 72 -23 24 0 31 -7 52
-54 27 -60 54 -84 107 -92 35 -6 37 -8 43 -55 9 -65 51 -114 113 -131 l45 -13
-95 -92 c-74 -72 -103 -93 -132 -99 -48 -9 -99 16 -115 57 -11 25 -11 41 2
113 2 17 -3 20 -39 21 -33 1 -50 8 -74 31 -28 26 -30 33 -26 74 3 25 9 55 13
68 l7 24 -51 -29 c-48 -26 -53 -27 -79 -13 -15 9 -34 28 -43 43 -14 25 -13 30
7 68 18 33 19 41 7 46 -8 3 -26 -8 -42 -25 -39 -41 -72 -48 -128 -27 -52 20
-74 54 -74 115 0 51 14 78 47 91 44 17 197 127 276 198 68 63 79 69 104 62 15
-4 47 -6 71 -3z m-528 -340 c0 -97 22 -125 129 -165 24 -9 23 -11 -36 -51
-105 -71 -166 -104 -187 -100 -12 3 -67 33 -124 69 l-103 64 66 16 c103 25
144 80 132 180 l-6 49 64 0 65 0 0 -62z m-332 -211 c31 -24 87 -63 124 -87 77
-50 77 -49 -30 -94 l-63 -27 -42 25 c-23 14 -69 46 -101 72 -53 42 -57 48 -40
57 31 16 66 51 75 75 5 12 11 22 15 22 3 0 31 -19 62 -43z m614 -46 c46 -30
44 -32 -66 -106 -160 -105 -367 -197 -554 -246 -121 -31 -190 -37 -210 -17
-16 16 -15 63 1 75 6 5 75 33 152 63 268 102 435 185 551 275 l57 44 16 -32
c9 -17 33 -43 53 -56z m-687 -138 c24 -15 43 -32 41 -38 -1 -5 -36 -23 -77
-38 -71 -28 -75 -28 -105 -12 -17 9 -42 27 -57 41 -14 13 -32 24 -39 24 -7 0
-4 6 7 12 40 22 65 52 76 90 l10 39 50 -45 c28 -25 70 -58 94 -73z m790 55
c14 -30 32 -49 59 -62 l38 -19 -36 -21 c-19 -11 -66 -40 -103 -62 -288 -177
-637 -299 -948 -334 -98 -10 -100 -10 -117 12 -45 59 -7 113 93 129 376 63
553 120 774 250 50 28 106 60 125 71 19 10 30 18 25 18 -9 0 55 59 65 60 3 0
14 -19 25 -42z m-1011 -134 l54 -36 -15 -35 c-9 -23 -12 -49 -8 -73 6 -37 6
-37 -32 -43 -21 -4 -51 -9 -68 -12 -24 -5 -39 0 -74 25 -45 33 -44 49 4 50 28
0 66 61 73 115 2 25 6 45 8 45 3 0 29 -16 58 -36z m1133 -27 c14 -51 55 -96
95 -104 28 -5 28 -6 11 -26 -27 -30 -300 -207 -379 -246 -38 -19 -76 -38 -84
-43 -94 -53 -302 -132 -432 -164 -195 -49 -420 -59 -520 -25 -87 30 -118 49
-135 86 -16 33 -16 37 0 70 26 54 49 63 177 70 346 19 644 101 979 270 58 29
142 76 186 104 44 28 82 50 85 51 3 0 11 -19 17 -43z m32 -323 c-13 -16 -104
-20 -114 -4 -3 5 23 30 57 55 l63 46 3 -41 c2 -23 -2 -48 -9 -56z m1 -49 c136
-9 156 -13 190 -41 34 -29 40 -75 15 -123 -31 -60 -190 -97 -365 -85 -136 9
-391 63 -390 82 1 4 81 46 178 94 165 82 180 87 227 83 28 -2 93 -7 145 -10z"/>
<path d="M8062 5811 c-29 -10 -59 -24 -65 -31 -9 -10 -9 -11 3 -7 79 30 128
39 184 33 68 -6 49 7 -24 17 -31 5 -61 1 -98 -12z"/>
<path d="M7380 5817 c3 -3 46 -10 95 -15 50 -6 99 -13 110 -16 11 -3 5 1 -13
9 -32 15 -203 34 -192 22z"/>
<path d="M7404 5680 c-67 -33 -85 -99 -34 -125 41 -21 47 -19 16 6 -32 25 -32
29 -3 65 l22 29 7 -40 c14 -87 4 -80 113 -77 75 2 96 0 92 -10 -21 -52 -21
-51 1 -39 55 30 68 121 27 185 -18 27 -19 27 -32 10 -13 -18 -15 -18 -44 -1
-41 23 -114 22 -165 -3z m204 -70 c26 -38 22 -45 -31 -54 -36 -7 -38 -6 -28
13 6 11 11 34 11 51 0 39 17 36 48 -10z m-80 7 c2 -12 -3 -17 -17 -17 -12 0
-21 6 -21 13 0 31 32 34 38 4z"/>
<path d="M8090 5683 c-64 -10 -108 -34 -124 -67 -20 -42 -20 -56 -1 -56 8 0
14 -5 13 -12 -2 -7 34 -16 107 -25 106 -14 111 -14 152 6 49 24 54 46 26 105
-13 29 -23 36 -57 41 -76 11 -91 12 -116 8z m-35 -88 c1 -45 0 -46 -29 -43
-16 2 -31 8 -33 14 -4 12 43 74 55 74 4 0 7 -21 7 -45z m115 9 c0 -8 -7 -14
-15 -14 -15 0 -21 21 -9 33 10 9 24 -2 24 -19z m70 -6 c25 -42 25 -42 -5 -56
-48 -22 -53 -17 -36 38 8 28 16 50 18 50 2 0 12 -15 23 -32z"/>
<path d="M7535 5510 l-30 -8 30 -1 c17 0 37 4 45 9 13 9 13 10 0 9 -8 -1 -28
-5 -45 -9z"/>
<path d="M8005 5501 c28 -12 105 -29 105 -24 0 9 -71 33 -97 32 -24 0 -25 -1
-8 -8z"/>
<path d="M7673 5332 c-32 -25 -34 -62 -5 -99 25 -33 109 -47 194 -32 74 12 86
20 61 40 -15 13 -61 18 -197 22 -68 2 -77 13 -46 57 25 34 24 36 -7 12z"/>
<path d="M7700 5040 c-52 -35 -87 -39 -98 -11 -7 18 -8 18 -24 -4 -17 -22 -17
-23 10 -30 15 -4 29 -10 32 -13 4 -6 105 -4 395 8 34 1 36 3 15 9 -14 4 -30
17 -36 30 -9 18 -13 19 -17 7 -9 -23 -35 -20 -73 9 -27 21 -44 25 -96 25 -53
0 -70 -5 -108 -30z"/>
<path d="M7710 4889 c0 -14 57 -35 113 -42 46 -6 47 -6 47 21 l0 27 -80 2
c-46 1 -80 -3 -80 -8z"/>
<path d="M7757 4688 c6 -10 120 -10 126 0 3 4 -26 7 -63 7 -37 0 -66 -3 -63
-7z"/>
<path d="M9915 7434 c-18 -60 -47 -94 -137 -164 -54 -42 -126 -93 -160 -114
-58 -34 -67 -37 -116 -31 l-54 5 20 -27 c33 -46 103 -123 112 -123 5 0 6 15 3
33 -5 30 0 38 49 83 64 58 235 177 247 172 5 -2 -27 -120 -70 -263 -43 -143
-79 -266 -79 -273 0 -19 37 3 190 114 201 146 216 154 272 154 47 0 48 1 37
23 -7 12 -31 46 -53 76 l-41 54 -6 -34 c-8 -49 -23 -73 -71 -112 -51 -41 -167
-117 -180 -117 -13 0 0 57 49 220 65 215 67 244 19 309 -22 30 -26 32 -31 15z"/>
<path d="M5594 7296 c-17 -8 -45 -29 -63 -47 -47 -50 -131 -178 -131 -200 0
-22 4 -23 29 -7 16 10 29 7 73 -16 122 -63 318 -225 318 -263 1 -48 17 -45 62
14 25 32 53 71 63 86 l18 29 -45 -7 c-35 -5 -54 -2 -84 13 -45 23 -111 88
-100 99 4 4 76 10 160 13 166 6 171 8 207 67 25 40 19 51 -18 33 -17 -7 -86
-15 -171 -18 l-144 -5 7 54 c8 72 -14 116 -75 147 -51 25 -63 26 -106 8z m73
-86 c43 -26 55 -51 51 -112 -5 -84 -42 -89 -138 -18 -85 63 -87 87 -15 132 38
23 62 23 102 -2z"/>
<path d="M5304 6812 c-52 -33 -149 -207 -160 -288 l-6 -39 20 24 c19 24 22 24
63 12 100 -30 344 -147 382 -182 l38 -37 14 22 c21 31 67 147 61 153 -2 3 -18
-5 -34 -17 -27 -20 -33 -21 -68 -10 -49 16 -111 47 -118 59 -3 5 1 37 10 72
21 82 15 151 -17 185 -53 57 -135 77 -185 46z m107 -87 c86 -45 92 -185 7
-185 -40 0 -162 65 -178 94 -38 72 83 136 171 91z"/>
<path d="M10300 6783 c-20 -31 -50 -51 -155 -105 -71 -36 -160 -77 -197 -89
-63 -22 -68 -22 -86 -6 -51 46 -50 7 4 -111 36 -79 54 -88 65 -33 4 18 15 39
25 47 32 25 276 141 332 158 47 14 56 14 76 1 12 -8 25 -12 29 -9 8 8 -15 80
-44 137 l-25 48 -24 -38z"/>
<path d="M10396 6477 c-54 -17 -55 -32 -2 -47 59 -16 79 -40 80 -93 l1 -42
-215 -62 -215 -62 -32 37 c-17 20 -35 33 -40 29 -8 -8 20 -130 44 -187 l14
-35 18 41 19 41 113 31 c144 39 315 82 327 82 8 0 32 -72 32 -94 0 -3 -16 -24
-36 -46 -20 -22 -34 -43 -31 -46 10 -10 96 6 110 21 12 11 9 31 -18 127 -17
62 -44 159 -60 216 -30 113 -30 113 -109 89z"/>
<path d="M5051 6284 c-13 -30 -27 -144 -17 -144 4 0 20 10 35 21 29 21 30 21
126 5 178 -31 274 -57 305 -83 27 -22 30 -31 30 -79 0 -105 -43 -164 -121
-164 -51 0 -300 43 -343 60 -14 5 -34 23 -45 41 -21 34 -24 32 -40 -27 -35
-131 -30 -182 12 -130 22 27 27 28 78 23 30 -2 110 -15 179 -27 234 -41 284
-15 321 166 11 55 11 67 -6 110 -37 96 -71 114 -313 158 -139 26 -159 34 -164
68 -4 31 -23 32 -37 2z"/>
<path d="M10070 5818 c0 -79 12 -115 30 -88 5 8 10 23 10 32 0 15 8 14 78 -7
101 -32 114 -47 110 -139 -3 -66 -5 -71 -33 -87 -16 -10 -51 -23 -77 -30 -44
-12 -49 -12 -71 9 -13 12 -27 22 -32 22 -8 0 2 -190 10 -199 3 -2 18 7 33 22
15 14 86 53 157 87 266 126 355 171 355 180 0 15 -101 62 -244 115 -163 60
-252 100 -293 131 l-33 25 0 -73z m401 -158 c21 -11 39 -23 39 -26 0 -9 -105
-52 -144 -59 l-36 -7 0 54 c0 30 5 59 11 65 13 13 76 0 130 -27z"/>
<path d="M5332 5569 c-43 -9 -73 -37 -130 -124 -97 -146 -138 -172 -187 -119
-19 20 -25 38 -25 71 0 56 11 75 55 102 50 29 46 45 -11 38 -67 -7 -78 -23
-82 -115 -5 -126 31 -170 145 -180 68 -6 86 6 148 98 56 84 100 137 126 150
43 24 111 -48 111 -116 0 -40 -19 -66 -74 -96 -21 -12 -38 -25 -38 -30 0 -4
27 -8 60 -8 76 0 84 13 85 135 0 77 -3 95 -23 128 -35 56 -94 80 -160 66z"/>
<path d="M10515 5240 c-4 -7 6 -25 24 -44 55 -56 63 -146 13 -146 -65 0 -431
67 -449 82 -7 6 -13 23 -13 39 0 43 -18 44 -29 1 -15 -53 -33 -193 -27 -199 3
-3 17 9 31 26 20 23 35 31 58 31 47 0 375 -58 398 -71 17 -8 20 -19 17 -62
l-3 -52 -50 -16 c-69 -22 -65 -41 10 -56 33 -6 63 -9 66 -5 4 4 21 99 38 212
18 113 34 215 36 226 5 25 -3 29 -68 39 -30 5 -47 3 -52 -5z"/>
<path d="M5361 4734 c-208 -80 -250 -87 -288 -52 -29 27 -29 19 2 -72 28 -84
40 -101 49 -73 12 36 63 74 156 114 120 52 150 58 150 32 0 -11 -47 -95 -104
-187 -58 -92 -108 -181 -111 -197 -6 -28 21 -129 34 -129 4 0 13 15 21 33 18
39 61 63 213 121 160 61 211 73 247 59 27 -10 30 -9 30 7 0 28 -51 140 -61
134 -5 -3 -9 -14 -9 -24 0 -10 -13 -29 -30 -43 -43 -37 -313 -138 -327 -123
-5 5 45 90 206 351 33 54 61 105 61 112 0 24 -44 12 -239 -63z"/>
<path d="M9978 4780 c-21 -33 -62 -160 -54 -167 3 -4 17 -1 31 5 43 20 72 14
270 -51 l190 -63 11 -40 11 -39 20 40 c26 51 57 145 50 151 -3 3 -16 -1 -29
-10 -21 -14 -31 -14 -97 0 -82 17 -204 60 -299 105 -48 23 -66 38 -75 62 l-13
32 -16 -25z"/>
<path d="M9846 4436 c-73 -90 -94 -176 -58 -245 24 -48 62 -73 109 -73 38 1
66 10 201 67 61 25 128 35 151 21 26 -16 1 -147 -32 -168 -7 -4 -31 -5 -53 -2
-54 8 -67 -11 -30 -43 55 -47 106 -17 157 92 41 85 39 127 -9 175 -20 21 -55
43 -76 48 -42 12 -71 3 -203 -62 -88 -44 -124 -46 -153 -8 -18 22 -21 35 -16
70 3 23 13 56 21 72 14 28 20 30 70 30 61 0 74 17 33 44 -52 34 -72 31 -112
-18z"/>
<path d="M5810 4270 c0 -38 -49 -89 -155 -160 -109 -74 -201 -115 -252 -114
-25 1 -43 -4 -43 -10 0 -6 20 -42 44 -81 47 -77 76 -95 76 -48 0 19 10 38 28
55 59 56 329 218 363 218 9 0 22 -7 29 -15 15 -18 30 -20 30 -4 0 16 -56 124
-82 160 -28 37 -38 37 -38 -1z"/>
<path d="M9470 3633 c-8 -3 -25 -15 -37 -26 -41 -36 -23 -160 25 -186 79 -42
184 36 168 123 -12 64 -95 111 -156 89z"/>
<path d="M6085 3538 c-30 -27 -44 -79 -34 -126 10 -48 21 -56 93 -60 59 -4 67
-2 90 21 22 22 26 35 26 82 0 46 -4 60 -25 80 -33 34 -112 35 -150 3z"/>
<path d="M8463 3216 c-35 -13 -70 -29 -78 -36 -18 -15 -19 -55 -1 -95 l14 -30
20 46 c30 68 45 79 107 79 66 0 85 -21 85 -91 0 -47 -14 -68 -53 -82 -33 -12
-12 -32 40 -38 58 -7 88 -22 103 -49 37 -70 -32 -170 -118 -170 -25 0 -42 8
-62 30 -34 37 -45 25 -29 -30 17 -55 35 -63 100 -44 147 44 215 119 195 216
-9 44 -42 77 -85 84 -64 10 -66 12 -40 40 20 21 24 36 24 86 0 53 -3 62 -28
84 -37 32 -109 31 -194 0z"/>
<path d="M6991 3194 c-40 -7 -75 -15 -78 -17 -2 -3 12 -8 32 -11 54 -10 85
-27 85 -45 0 -21 -44 -161 -59 -189 -8 -14 -21 -22 -39 -22 -15 0 -33 -4 -41
-9 -11 -7 -9 -12 10 -24 27 -18 126 -52 179 -62 l35 -6 -39 36 -38 37 45 127
c59 163 61 169 47 186 -15 18 -40 17 -139 -1z"/>
<path d="M7400 3127 c-34 -11 -35 -14 -35 -61 0 -63 18 -70 44 -17 35 68 72
74 138 24 47 -35 57 -57 39 -90 -20 -40 -50 -64 -88 -72 -44 -9 -46 -32 -6
-55 57 -33 78 -57 78 -91 0 -58 -65 -115 -130 -115 -44 0 -70 16 -86 56 -8 19
-18 34 -23 34 -12 0 -32 -75 -25 -94 8 -21 61 -31 159 -30 132 1 186 40 187
138 1 54 -14 82 -59 105 l-37 18 30 16 c49 26 76 62 82 112 4 38 1 50 -18 70
-44 47 -184 76 -250 52z"/>
<path d="M8064 3057 c-59 -83 -163 -247 -188 -296 -15 -28 -15 -35 -4 -42 17
-11 25 -11 126 1 45 5 89 7 97 4 7 -3 17 -24 20 -47 8 -49 21 -67 46 -67 20 0
25 12 35 83 5 38 11 50 30 57 15 6 24 18 24 30 0 17 -5 19 -24 14 -35 -8 -45
16 -62 154 -18 135 -26 174 -39 179 -6 1 -33 -30 -61 -70z m33 -160 c7 -109 6
-111 -85 -123 -50 -6 -52 -6 -52 17 0 21 49 116 100 196 22 35 31 14 37 -90z"/>
<path d="M8741 1450 c164 -130 164 -130 217 -130 40 0 51 3 46 13 -4 6 -52 65
-106 130 l-99 117 -111 0 -111 0 164 -130z"/>
<path d="M130 1516 c0 -32 2 -34 46 -40 26 -3 63 -6 83 -6 20 0 41 -4 48 -8 9
-6 13 -129 15 -487 3 -480 3 -480 27 -540 15 -37 44 -80 75 -113 92 -98 222
-144 406 -145 169 0 287 39 372 124 56 56 82 106 110 207 20 72 22 107 26 515
l4 437 21 5 c12 2 52 7 90 10 l67 7 0 34 0 34 -240 0 -240 0 0 -34 c0 -32 2
-34 46 -40 26 -3 63 -6 83 -6 20 0 42 -4 49 -9 11 -6 13 -95 10 -462 -4 -522
-4 -520 -91 -615 -70 -77 -135 -106 -251 -112 -77 -4 -107 -1 -163 16 -82 25
-153 76 -187 135 -39 67 -46 161 -46 617 l0 418 28 6 c15 3 60 8 100 11 l72 7
0 34 0 34 -280 0 -280 0 0 -34z"/>
<path d="M11840 1517 l0 -35 68 -7 c37 -3 79 -9 95 -11 l27 -6 0 -582 0 -583
-37 -7 c-21 -3 -54 -6 -73 -6 -66 0 -81 -9 -78 -44 l3 -31 285 0 285 0 3 31
c3 35 -12 44 -79 44 -20 0 -57 3 -83 6 l-46 7 0 258 c0 149 4 259 9 259 5 0
45 -7 88 -15 141 -27 243 -13 365 52 160 84 237 231 208 394 -28 154 -123 247
-295 289 -32 7 -176 14 -397 17 l-348 5 0 -35z m612 -71 c155 -33 226 -109
236 -252 9 -138 -50 -246 -160 -294 -44 -20 -75 -24 -185 -28 l-133 -4 0 289
c0 159 3 293 7 296 12 12 166 7 235 -7z"/>
<path d="M6461 1224 c-187 -50 -283 -242 -195 -391 33 -57 83 -93 229 -164 67
-33 138 -73 158 -90 107 -88 100 -234 -15 -299 -53 -30 -189 -40 -253 -18
l-39 13 -16 90 -16 90 -37 3 -37 3 0 -120 0 -120 38 -11 c208 -56 383 -32 493
67 60 54 89 121 89 207 0 138 -46 188 -272 301 -192 95 -219 121 -226 213 -5
71 21 116 88 150 39 20 56 23 127 20 113 -6 124 -15 143 -119 l15 -84 35 0 35
0 3 113 3 113 -34 14 c-35 14 -177 36 -232 34 -16 0 -54 -7 -84 -15z"/>
<path d="M8711 750 l-194 -490 -31 0 c-17 0 -48 -3 -68 -6 -32 -6 -38 -11 -38
-30 l0 -24 170 0 170 0 0 24 c0 23 -5 25 -66 31 -54 6 -64 10 -59 24 3 9 31
80 62 159 l57 142 170 -2 171 -3 57 -145 c31 -80 57 -151 57 -157 1 -8 -12
-13 -33 -13 -68 0 -96 -11 -96 -36 l0 -24 200 0 200 0 0 24 c0 26 -4 27 -110
38 -23 3 -35 33 -187 448 -89 245 -170 464 -179 488 -12 32 -21 42 -37 42 -20
0 -43 -54 -216 -490z m260 66 c32 -88 59 -164 59 -168 0 -4 -65 -8 -145 -8
-80 0 -145 4 -145 8 0 9 128 329 143 357 10 18 10 18 19 -5 5 -14 36 -97 69
-184z"/>
<path d="M13821 1224 c-187 -50 -283 -242 -195 -391 33 -57 83 -93 229 -164
67 -33 138 -73 158 -90 107 -88 100 -234 -15 -299 -53 -30 -189 -40 -253 -18
l-39 13 -16 90 -16 90 -37 3 -37 3 0 -120 0 -120 38 -11 c208 -56 383 -32 493
67 60 54 89 121 89 207 0 138 -46 188 -272 301 -192 95 -219 121 -226 213 -5
71 21 116 88 150 39 20 56 23 127 20 113 -6 124 -15 143 -119 l15 -84 35 0 35
0 3 113 3 113 -34 14 c-35 14 -177 36 -232 34 -16 0 -54 -7 -84 -15z"/>
<path d="M14621 750 l-194 -490 -31 0 c-17 0 -48 -3 -68 -6 -32 -6 -38 -11
-38 -30 l0 -24 170 0 170 0 0 24 c0 23 -5 25 -66 31 -54 6 -64 10 -59 24 3 9
31 80 62 159 l57 142 170 -2 171 -3 57 -145 c31 -80 57 -151 57 -157 1 -8 -12
-13 -33 -13 -68 0 -96 -11 -96 -36 l0 -24 200 0 200 0 0 24 c0 26 -4 27 -110
38 -23 3 -35 33 -187 448 -89 245 -170 464 -179 488 -12 32 -21 42 -37 42 -20
0 -43 -54 -216 -490z m260 66 c32 -88 59 -164 59 -168 0 -4 -65 -8 -145 -8
-80 0 -145 4 -145 8 0 9 128 329 143 357 10 18 10 18 19 -5 5 -14 36 -97 69
-184z"/>
<path d="M1480 1191 c0 -29 1 -30 70 -37 l70 -7 0 -437 0 -438 -65 -7 c-64 -6
-65 -7 -65 -36 l0 -29 165 0 165 0 0 29 c0 28 -2 30 -61 38 l-60 8 1 384 c0
212 2 386 3 387 2 2 148 -190 325 -426 236 -316 327 -430 342 -430 20 0 20 7
20 479 l0 479 65 7 c64 6 65 7 65 36 l0 29 -165 0 -165 0 0 -29 c0 -27 2 -29
63 -37 l62 -9 3 -332 c1 -183 -1 -333 -5 -333 -5 1 -132 167 -283 370 l-275
369 -137 1 -138 0 0 -29z"/>
<path d="M2690 1196 c0 -28 16 -36 70 -36 76 0 70 38 70 -456 l0 -444 -47 0
c-72 0 -93 -8 -93 -36 l0 -24 210 0 210 0 0 25 c0 26 -16 32 -103 37 l-38 3 1
440 c0 336 3 441 13 447 6 4 32 8 57 8 54 0 73 11 68 36 -3 18 -17 19 -211 22
l-207 2 0 -24z"/>
<path d="M3172 1193 c3 -26 7 -28 61 -34 32 -4 61 -9 64 -13 4 -3 86 -221 183
-484 163 -439 179 -477 201 -480 23 -2 33 20 213 482 106 272 195 487 203 490
8 3 33 6 56 6 51 0 70 11 65 36 -3 18 -16 19 -171 22 l-167 2 0 -24 c0 -28 16
-36 75 -36 24 0 46 -4 49 -8 5 -9 -269 -731 -283 -745 -5 -5 -71 160 -148 365
-153 408 -149 386 -68 387 49 2 68 13 63 37 -3 18 -17 19 -201 22 l-198 2 3
-27z"/>
<path d="M4260 1195 c0 -25 15 -31 100 -37 l35 -3 0 -445 0 -445 -45 -3 c-76
-4 -90 -10 -90 -37 l0 -25 375 0 375 0 0 125 0 125 -29 0 c-34 0 -35 -3 -51
-103 l-13 -77 -193 0 -194 0 0 210 0 210 114 0 114 0 7 -71 c7 -68 8 -70 34
-67 l26 3 3 168 2 167 -29 0 c-29 0 -30 -1 -36 -65 l-7 -65 -114 0 -114 0 0
195 0 195 183 -2 182 -3 14 -87 15 -88 33 0 33 0 0 125 0 125 -365 0 -365 0 0
-25z"/>
<path d="M5200 1197 c0 -27 14 -33 100 -39 l35 -3 3 -447 2 -448 -39 0 c-73 0
-101 -10 -101 -36 l0 -24 218 2 c214 3 217 3 220 25 3 22 -6 25 -133 35 l-30
3 0 205 0 205 45 -3 c59 -5 122 -42 168 -101 20 -26 73 -120 117 -209 l80
-162 122 0 123 0 0 24 c0 26 1 25 -110 39 -8 1 -49 67 -92 150 -81 157 -126
223 -170 254 -35 23 -35 29 0 36 15 4 51 20 80 37 144 84 171 268 56 384 -74
73 -138 87 -441 93 l-253 5 0 -25z m468 -62 c63 -19 109 -57 133 -110 24 -53
24 -135 0 -183 -39 -77 -88 -99 -226 -104 l-100 -3 -3 208 -2 207 73 0 c40 0
96 -7 125 -15z"/>
<path d="M7010 1196 c0 -28 16 -36 70 -36 76 0 70 38 70 -456 l0 -444 -47 0
c-72 0 -93 -8 -93 -36 l0 -24 210 0 210 0 0 25 c0 26 -16 32 -103 37 l-38 3 1
440 c0 336 3 441 13 447 6 4 32 8 57 8 54 0 73 11 68 36 -3 18 -17 19 -211 22
l-207 2 0 -24z"/>
<path d="M7560 1095 l0 -125 34 0 c33 0 33 1 45 63 6 34 14 74 17 90 l6 27
129 0 129 0 0 -439 c0 -493 7 -451 -80 -451 -64 0 -80 -7 -80 -36 l0 -24 225
0 225 0 0 24 c0 29 -16 36 -80 36 -87 0 -80 -42 -80 451 l0 439 129 0 c147 0
132 11 152 -107 l12 -73 34 0 33 0 0 125 0 125 -425 0 -425 0 0 -125z"/>
<path d="M9880 1192 c0 -31 0 -31 70 -38 l70 -7 0 -437 0 -438 -70 -7 c-69 -7
-70 -7 -70 -36 l0 -29 224 0 c124 0 259 5 301 11 277 38 413 168 447 426 31
227 -71 441 -248 519 -111 49 -162 56 -451 61 l-273 5 0 -30z m532 -53 c198
-42 300 -200 302 -464 1 -190 -48 -294 -164 -352 -82 -42 -144 -53 -286 -53
l-114 0 0 440 0 440 105 0 c57 0 128 -5 157 -11z"/>
<path d="M10960 1196 c0 -28 16 -36 70 -36 76 0 70 38 70 -456 l0 -444 -47 0
c-72 0 -93 -8 -93 -36 l0 -24 210 0 210 0 0 25 c0 26 -16 32 -103 37 l-38 3 1
440 c0 336 3 441 13 447 6 4 32 8 57 8 54 0 73 11 68 36 -3 18 -17 19 -211 22
l-207 2 0 -24z"/>
<path d="M12970 1196 c0 -28 16 -36 70 -36 76 0 70 38 70 -456 l0 -444 -47 0
c-72 0 -93 -8 -93 -36 l0 -24 210 0 210 0 0 25 c0 26 -16 32 -103 37 l-38 3 1
440 c0 336 3 441 13 447 6 4 32 8 57 8 54 0 73 11 68 36 -3 18 -17 19 -211 22
l-207 2 0 -24z"/>
</g>
</svg>
