<?xml version="1.0" encoding="utf-8"?>
<!-- Generator: Adobe Illustrator 19.0.0, SVG Export Plug-In . SVG Version: 6.00 Build 0)  -->
<svg version="1.1" id="Layer_1" xmlns="http://www.w3.org/2000/svg" xmlns:xlink="http://www.w3.org/1999/xlink" x="0px" y="0px"
	 viewBox="0 0 500 500" style="enable-background:new 0 0 500 500;" xml:space="preserve">
<style type="text/css">
	.st0{fill:#144B7A;}
</style>
<g id="XMLID_1_">
	<path id="XMLID_107_" class="st0" d="M221.9,431.2c-2.1-0.7-2.4-1.5-1.8-4.6l0.8-3.8l1.4,3.4c2.7,6.5,14,3.5,14-3.7
		c0-2.7-3.6-6.7-6-6.7c-0.8,0-1.5-0.6-1.5-1.3c0-0.7,1.4-1.3,3.2-1.3c5.6,0,7-8.5,1.8-11.3c-4-2.1-7-1.4-8.7,2.2l-1.7,3.4l-0.5-3
		c-0.3-1.6,0.1-3.5,0.8-4.2c1.6-1.6,12-1.4,15.2,0.3c5.1,2.7,4.3,11.4-1.3,13.2c-2.5,0.8-2.4,0.9,0.6,3.3c7.1,5.6,1.7,14.9-8.6,14.7
		C226.7,432.1,223.3,431.7,221.9,431.2z M270.5,428.4l-0.8-3.9l-7.9,0.9c-4.4,0.5-8,0.6-8,0.2s3.8-6.7,8.4-14.1
		c9.4-15.1,9.5-15.1,11,1.1c0.7,7.2,1.2,8.4,3.2,8.4c3.1,0,3.1,2,0.1,2.8c-1.8,0.5-2.2,1.5-1.7,4.5
		C275.6,433.9,271.6,433.9,270.5,428.4L270.5,428.4z M269.4,419.4c-0.1-1.2-0.2-4.4-0.3-7.2c-0.1-2.8-0.6-5-1.1-5
		c-0.8,0-7.2,10.3-8.9,14.2c-0.2,0.6,2,0.8,5,0.6C268.2,421.7,269.4,421.1,269.4,419.4z M294,424.5c-1.5-4-0.3-5.2,2.2-2.2
		c2,2.5,2.2,2.5,6.5,0.3c7.8-3.9,6.4-12.8-2-12.8c-2.3,0-4.2-0.6-4.2-1.3c0-0.7,0.8-1.3,1.8-1.3c4.3,0,4.9-9,0.7-11.2
		c-3.5-1.9-7.7,0-9.5,4.2l-1.6,3.9l-1.2-3.1c-1-2.7-0.7-3.5,2.1-5.3c10.7-7.1,22.3-0.6,15.7,8.8c-1.9,2.6-1.8,2.8,1.1,2.8
		c5.4,0,8.6,6,6.3,11.9c-0.8,2.1-12,8.1-15.2,8.1C295.7,427.3,294.5,426,294,424.5L294,424.5z M198.1,417.3c-5.9-2.2-6.2-2.7-2-3
		c1-0.1,2.8-3.3,4.2-7.5c2.7-8,2.1-9.4-4.1-9.7c-1.7-0.1,0.3-0.8,4.4-1.6c5-0.9,7.6-1,7.9-0.2c0.2,0.7-1.1,5.4-2.8,10.5
		c-2.9,8.7-3,9.4-1.1,11.6C207.1,420.3,206.2,420.2,198.1,417.3L198.1,417.3z M141.9,384c-4.4-4.4-1.1-11.8,5.4-11.8
		c1.9,0,4.1,0.7,4.9,1.5c1.8,1.8,1.9,6.6,0.2,9.8C150.8,386.6,144.7,386.8,141.9,384L141.9,384z M354.2,380.3
		c-5-3.5-2.3-13.1,3.6-13.1c3.6,0,7.4,3.8,7.4,7.5c0,3.5-3.7,7.5-6.9,7.5C357.6,382.2,355.7,381.4,354.2,380.3z M203.8,378.5
		c-5.2-1.3-10-6.5-10-10.8c0-4,5.2-9.3,9.2-9.3c2.4,0,3.2-0.8,3.6-3.8c0.5-3.3-0.2-4.5-5.6-9l-6.1-5.1l-3.1,3.3
		c-4.2,4.5-8.3,5.3-14.8,2.8c-13.7-5.2-35.6-39.5-42.5-66.4c-13.1-51.2,6.5-113.2,35.7-113.2c5.8,0,6-0.1,6-3.6
		c0-5.1,6.4-13.3,14.5-18.4c6.5-4.1,6.8-4.6,6.1-8.4c-0.6-3.2-0.2-4.6,2.1-6.6c5-4.5,13.6-5.6,48.5-6.1c44.4-0.7,52.6,1.1,52.6,11
		c0,1.6-0.6,3.5-1.3,4.3c-0.9,0.9,1,2.7,6.2,5.9c8.8,5.4,14.8,12.2,15.9,18c0.7,3.8,1.1,4.1,4.2,3.4c9.3-2,22,5.5,29.9,17.8
		c18,28.1,19.5,82.2,3.3,117.6c-4.6,10-15.7,27.6-22.9,36.3c-5.4,6.5-13.4,11.6-18.2,11.6c-4.6,0-10.4-3.2-11.4-6.2
		c-1.1-3.4-1.6-3.2-7.8,2.4c-4.1,3.7-5.3,5.7-5.3,8.7c0,3.4,0.4,3.9,3.5,3.9c7.9,0,11.9,10.6,6,16.1c-6.4,6-29.5,6.4-46.1,0.7
		c-5.5-1.9-6.2-1.8-14.3,0.7C232.2,379,211.1,380.4,203.8,378.5L203.8,378.5z M228.3,374.7c17.8-3.2,33.3-9.3,50-19.5
		c14.1-8.7,13.8-8.4,10.3-11.9c-1.7-1.7-3.3-3.8-3.6-4.7c-0.4-1.2-2.5-0.4-7.7,2.9c-17.4,11.1-42.4,19.1-63.8,20.4
		c-11,0.7-12.5,1.1-14.2,3.6C194,373.4,208.8,378.1,228.3,374.7L228.3,374.7z M299.3,372.4c2.4-2,2.7-6.8,0.5-8.6
		c-0.9-0.7-6.3-1.5-12.2-1.9c-10.2-0.6-11-0.5-20.3,3.9c-5.3,2.5-9.7,4.9-9.7,5.4C257.3,374.5,295.3,375.7,299.3,372.4L299.3,372.4z
		 M236.1,354c6.4-1.6,16.2-4.9,21.7-7.3c10.1-4.3,23.6-12,23.6-13.2c0-0.4-1.1-2-2.4-3.5l-2.4-2.9l-5.7,4.4
		c-11.4,8.7-30.1,15.9-47.7,18.4c-10.9,1.5-13.6,3-12.2,6.7C211.8,359.1,218.3,358.5,236.1,354L236.1,354z M288.8,355.2
		c0-1.4-0.5-1.5-2.4-0.2c-1.3,0.8-2.2,1.9-1.8,2.5C285.5,358.9,288.8,357.2,288.8,355.2z M217.8,342.9c0.4-3.1,0-4.6-1.4-5.1
		c-1.1-0.4-2.1,0-2.4,0.8c-0.3,0.9-1.8,2.8-3.3,4.4c-3.3,3.3-2.8,4.2,2.6,4.2C216.9,347.2,217.3,346.8,217.8,342.9z M234.3,343.5
		c10.7-2.7,22.5-7.6,30.1-12.5c7.3-4.6,8.2-6.2,5.4-9c-2.3-2.3-2.5-2.3-7.6,1.3c-7.5,5.1-14.7,8.7-28.4,14c-7.4,2.9-12,5.4-12.3,6.7
		C221,346.5,222.6,346.5,234.3,343.5L234.3,343.5z M322.4,344.2c5.2-2.7,13-11.6,20.5-23.3c11.1-17.2,15.8-28.1,19.2-44.2
		c2-9.6,4.3-32.1,3.4-33.6c-0.3-0.5-2,0-3.7,1.2c-2.5,1.7-3.9,1.8-6.7,0.7c-2-0.7-3.9-1-4.3-0.6c-0.4,0.4-0.7,3.6-0.7,7.1
		c0,13.7-7.2,38.3-14.7,50.6c-2.5,4.2-9.6,13.8-15.6,21.3c-6,7.6-10.9,14.9-10.9,16.2c0,2.8,4.4,6.4,7.8,6.4
		C318,346,320.5,345.2,322.4,344.2L322.4,344.2z M189.7,339.6c1.4-2.8,1.1-3.5-3.2-8c-5.9-6.2-20-26.6-24.2-35
		c-7.1-14.2-12.2-33.4-12.2-45.9v-6l-5.5,0.7c-3.4,0.5-5.8,0.2-6.3-0.6c-1.7-2.8-4.3-1.5-3.8,2c0.2,1.9,0.7,7.9,1.1,13.4
		c0.9,12.7,5.8,31,11.1,41.7c9.3,18.7,23.9,37.7,31.4,40.9C182.7,344.9,187.7,343.5,189.7,339.6L189.7,339.6z M208.1,339.8
		c2.3-2.5,1.9-8.8-0.6-8.8c-0.7,0-1.2-0.8-1.2-1.9c0-2.2,1.7-2.4,5-0.6c3.9,2.1,6.5,0.2,6.1-4.5c-0.4-5.2,0.5-6.1,4-4.3
		c2.2,1.2,3.1,1.1,4.7-0.5c1.6-1.6,1.7-2.5,0.4-5.3c-2.2-4.7,0-6.2,3.6-2.4c6.9,7.3,19.5,0.6,13.5-7.2c-0.9-1.1-5.6-4-10.5-6.5
		c-4.9-2.4-10.5-6-12.3-8c-2.6-2.7-4.2-3.4-7-3c-2.5,0.4-3.7,1.3-3.7,2.8c0,1.2-1.8,3.7-4.1,5.5c-2.2,1.8-4.5,3.8-5.1,4.4
		c-0.6,0.6-2.4,2.6-4,4.4c-1.7,1.9-4.3,3.2-6.2,3.2c-1.8,0-4.4,1.1-5.9,2.5c-1.5,1.4-3.7,2.5-5,2.5c-1.2,0-2.3,0.3-2.3,0.7
		c0,1.7,7.8,11.9,10.1,13.1c4.7,2.5,10-2.8,7.5-7.5c-1.9-3.5-1.6-3.7,3.7-3.7c5.5,0,7.9-2.6,6.7-7.4c-0.7-2.6-0.4-2.7,3.8-1.9
		c3,0.6,5.2,0.3,6.4-0.7c2.2-1.8,2.4-6.4,0.4-8.4c-0.8-0.8-1-2.4-0.6-3.5c0.8-2,1-2,3.3,0.1c5.5,5,1.5,16.9-5.6,16.9
		c-1.6,0-3.2,1.3-4.2,3.6c-0.9,2-3.2,4.3-5.2,5.1c-2.4,1-3.8,2.7-4.3,5.1c-0.5,2.3-2.2,4.6-4.6,6l-3.9,2.4l6.5,5.1
		c3.6,2.8,6.9,5.1,7.4,5.1C205.5,342.2,206.9,341.1,208.1,339.8L208.1,339.8z M302,337l5.6-5.2l-3.7-2.2c-2.1-1.3-4-3.7-4.4-5.8
		c-0.5-2.3-2.1-4.1-4.4-5.2c-2.1-0.9-4.2-3.2-4.9-5.3c-1-2.8-2.1-3.7-4.5-3.7c-4.2,0-8.2-4.1-8.2-8.5c0-4.1,3.1-9,5.7-9
		c2.3,0,2.3,0.6-0.2,4.5c-1.7,2.5-1.8,3.7-0.6,6.3c1.2,2.7,2.1,3.1,6.1,2.8c4.4-0.4,4.7-0.2,5.1,3.3c0.6,5.4,2.6,7.2,6.7,6.4
		c3.4-0.7,3.5-0.5,3.5,4.1c0,9.8,7,10,13.4,0.4c4.8-7.2,4.9-7.8,1.1-7.8c-1.6,0-4-1.1-5.2-2.5c-1.2-1.4-3.2-2.5-4.4-2.5
		c-2.7,0-8.7-4.7-8.7-6.8c0-0.9-1.7-2-3.8-2.4c-3-0.6-4.3-1.9-5.9-5.8c-2.7-6.4-6.2-6.6-13.2-0.8c-2.8,2.3-8.1,6-11.6,8.2
		c-7.4,4.6-9,7.6-6.1,12.1c2.4,3.7,6.2,3.9,9.1,0.6c4-4.6,7-2.6,3.8,2.5c-1.3,2-1.2,2.8,0.6,4.6c1.9,1.9,2.6,1.9,4.8,0.6
		c3.3-2.1,4.2-1.1,4.2,4.6c0,4,0.4,4.6,3.1,5c5.9,0.7,6.4,1.1,4.8,4.6c-1.2,2.6-1.1,3.6,0.8,5.7C294,343.3,295.7,342.9,302,337
		L302,337z M231.1,334c0.2-0.2-1.6-1.8-4.1-3.7l-4.5-3.4l-2.4,3c-2.4,2.9-2.4,3,0.2,5c2.1,1.6,3.4,1.8,6.5,0.8
		C228.9,334.9,230.9,334.2,231.1,334z M241.9,329.7l3.5-1.3l-5.7-3.6c-3.1-2-6-4.2-6.5-4.9c-0.9-1.4-5.7,2.6-5.7,4.8
		c0,1.5,8.9,7.6,10,6.9C238.1,331.3,240,330.4,241.9,329.7L241.9,329.7z M255.9,322.8l5.5-3.2l-3.8-3.8c-2.5-2.5-3.8-5-3.8-7.4
		c0-2.7-0.6-3.7-2.3-3.7c-1.7,0-2.3,1-2.4,3.8c-0.1,4.6-2.1,7.3-7,9.3l-3.6,1.5l5.5,3.3c3,1.8,5.7,3.3,6,3.3
		C250.2,325.9,252.9,324.5,255.9,322.8L255.9,322.8z M182,307.5c0.7-0.5,1.7-1.9,2.2-3.2c0.7-1.8,1.7-2.1,4.4-1.5
		c3.9,0.8,7.1-1.7,7.9-6.2c0.3-1.6,1.6-2.7,3.6-2.9c3.5-0.5,6.2-3.4,6.2-6.7c0-3.7-8.6-15.9-12.7-18c-4.8-2.5-14-2.8-16.7-0.5
		c-6.9,5.7-9.3,21.1-5.1,32.4C174.4,307.9,177.9,310.2,182,307.5L182,307.5z M324.8,306.9c1.9-2.3,5.3-14.6,5.3-19
		c0-6.4-2.4-12.8-6.2-16.9c-6.9-7.4-18.6-4.5-26,6.4c-2,3-4,6.9-4.5,8.6c-1,4.2,2.1,8.7,6.1,8.7c2.2,0,3.3,0.9,3.8,3.2
		c0.9,3.7,4.1,5.7,7.6,4.8c1.8-0.5,2.9,0.2,3.9,2.6c1.1,2.4,2.4,3.2,5.1,3.2C321.9,308.4,324.1,307.7,324.8,306.9L324.8,306.9z
		 M268.6,292.5c10-7.3,14.4-13.4,17.3-23.9c1.7-6.3,1.9-8.4,0.7-10.3c-2.1-3.3-1.8-6.2,0.7-8.1c2.1-1.5,2-1.8-0.8-5.6
		c-2.4-3.2-3-5.8-3.3-13.5c-0.4-9.1-0.5-9.5-3.5-9.6c-4.1-0.2-8.3-4.1-8.3-7.6c0-4.6-3.1-6.3-8.3-4.4c-5,1.8-10.9,0.2-12.3-3.3
		c-0.6-1.7-1.2-1.5-3.7,0.9c-2.2,2.1-4.3,2.7-7.8,2.5c-10.4-0.6-11.7-0.2-11.7,3.6c0,4.3-3.1,7.3-8.1,7.9c-2.1,0.2-3.6,1.1-3.4,2
		c0.2,0.8,0.4,4.9,0.5,9c0.1,5.9-0.4,8.2-2.5,10.8c-3.1,4-3.4,6.8-0.8,6.8c2.2,0,2.6,5.7,0.5,7c-3.7,2.3,3.8,25.4,10.1,31.1
		c1.4,1.2,6.8,4.3,12,6.8c8,3.9,10.6,4.5,17,4.3C259.6,298.6,261,298,268.6,292.5L268.6,292.5z M246.9,287.8c-2.3-1.7-2-1.8,2.9-1.7
		c3.5,0.1,5.3,0.7,5.3,1.8C255.1,290.2,249.9,290.1,246.9,287.8z M250.1,281.2c-11.3-0.4-13.8-1.1-12.9-3.6c0.7-1.8,0.9-1.8,1.9,0.1
		c1.1,1.9,1.4,1.9,4.3,0c4.4-2.9,11-3.5,12.9-1.2c1.7,2,4.5,2.5,5.2,0.9c0.2-0.5,1.3,0,2.5,1.1c1.9,2,1.8,2.1-1.9,2.6
		C260,281.3,254.5,281.4,250.1,281.2L250.1,281.2z M246.9,267.5c-5.7-1.4-7.5-6-3.5-9.3c1.9-1.6,1.9-1.5,0.6,1
		c-1.9,3.6-1.8,4.2,0.7,3.9c7.1-0.6,16,1.4,14,3.1C257.7,267.3,249.5,268.1,246.9,267.5z M237.6,249.8c0-0.6-1.5-0.8-3.4-0.5
		c-2.7,0.4-3,0.3-1.6-0.8c1.5-1,1-1.3-2.3-1.3c-4.6,0-9-1.9-9-3.9c0-0.7,1.4-2.6,3.1-4.3c3.2-3.2,9.8-4.2,11.3-1.8
		c0.4,0.7,1.8,1,3,0.6c1.6-0.5,2.6,0.3,3.8,3.1c1.3,3.2,1.2,4.3-0.5,6.9C240,250.8,237.6,252,237.6,249.8L237.6,249.8z M239.1,245.1
		c1-1-0.3-4.3-1.7-4.3c-0.6,0-1.1,1.1-1.1,2.5C236.3,245.8,237.6,246.6,239.1,245.1z M226.3,242.7c0-1.1-0.6-1.6-1.3-1.2
		c-0.7,0.4-1.3,1.3-1.3,2c0,0.6,0.6,1.2,1.3,1.2C225.7,244.6,226.3,243.8,226.3,242.7z M264.5,249.9c-3.3-0.5-3.5-0.7-1.3-1.6
		c2.4-1,2.4-1-0.3-1.1c-5.6-0.2-2.4-8,4-9.6c5.3-1.3,9.7,0,12.5,3.6c2.6,3.5,2.6,3.6,0.2,5.3c-1.3,1-4.3,1.8-6.6,1.8
		c-2.5,0-3.9,0.5-3.4,1.3c0.4,0.7,0.3,1.2-0.2,1.1C268.7,250.6,266.5,250.2,264.5,249.9z M278.8,244.6c0-0.6-0.6-1.4-1.3-1.8
		c-0.7-0.4-1.3-0.5-1.3-0.2c0,0.3-0.3,1.5-0.8,2.6c-0.6,1.5-0.2,1.8,1.3,1.2C277.9,246,278.8,245.1,278.8,244.6z M266.3,243.2
		c0-2.2-0.3-2.4-1.9-1.1c-1.9,1.6-1.5,3.8,0.7,3.8C265.8,245.9,266.3,244.7,266.3,243.2z M230,231c-6-0.6-6.4-0.8-3.1-1.6
		c4.2-0.9,10.3-0.1,11.4,1.6c0.4,0.6,0.2,1-0.3,0.9C237.4,231.8,233.8,231.4,230,231z M265.1,230.3c3.4-2.1,8-2.4,11.9-0.8
		c1.8,0.7,0.8,1-3.1,0.9c-3.1-0.1-7,0.3-8.8,0.8l-3.1,1L265.1,230.3z M339,284.2c4.3-12.4,7.4-27.1,7.4-35.3c0-5.3-0.1-5.5-2.6-4.2
		c-1.5,0.8-4.5,1.1-6.9,0.6c-3.7-0.7-4.2-0.5-4.2,1.8c0,1.4-0.9,6.9-2,12.1c-1.9,9.2-1.9,9.7,0.8,15.8c2.1,4.9,2.6,8.1,2.2,14.2
		c-0.3,4.3-0.1,7.5,0.5,6.9C334.7,295.6,336.9,290.2,339,284.2z M168.8,273c2.6-4.9,2.6-5.1,0.4-16.4l-2.2-11.5l-6.8,0.1l-6.8,0.1
		l0.8,9.4c0.9,10.5,2,15.1,6.8,28.8l3.3,9.4l0.9-7.4C165.8,281.3,167.4,275.8,168.8,273L168.8,273z M214.4,281.2
		c-3.1-7.2-5.5-15.2-5.5-18.8c0-4-2.7-5.7-4.4-2.8c-1.5,2.5-5,1.1-9.6-3.9c-5-5.4-5.6-7.3-3.4-11.3c1.1-2.1,1.6-2.3,3.4-0.9
		c1.8,1.4,1.9,1.3,1-0.9c-0.6-1.4-1.7-4.2-2.4-6.4c-2.3-6.2-5-8.3-8.9-6.8c-5.1,2-7.6,1.5-11.9-2c-2.9-2.5-4.3-2.9-5.4-1.9
		c-2.6,2.6-10.8,1.7-14-1.5c-1.8-1.8-4.5-3-6.9-3c-2.2-0.1-5-1-6.3-2.2c-1.2-1.1-2.5-1.6-2.8-1c-1.5,2.5-2.2,15.2-1,18.3
		c2.5,6.6,11.2,7.2,13.2,0.9c0.9-2.8,4.4-3.4,4.4-0.8c0,0.9,1.1,2.7,2.5,4c2,1.8,3.2,2,5.9,1.1c1.9-0.7,3.6-2.3,3.8-3.7
		c0.8-4.4,2.5-5,5.7-2c3.5,3.2,7.4,2.7,9.6-1.2c2.6-4.9,4.3-2.7,4.5,5.9c0.1,4.6,0.6,11.4,1,15.1c0.7,5.8,1.3,6.9,4.2,8
		c6.8,2.5,9.1,4.2,12.9,10.2c3.7,5.8,7.9,9.8,10.3,9.8C214.8,283.4,214.9,282.4,214.4,281.2L214.4,281.2z M289,281.8
		c1-0.9,3.5-3.8,5.5-6.6c4.6-6.3,6.2-7.7,12.7-10.7c6-2.8,6.6-4.9,7.1-23c0.2-6.5,0.8-10.1,1.8-10.4c0.8-0.3,1.5,0.1,1.5,0.8
		c0,0.7,1.1,2.5,2.5,3.8c2.6,2.6,5.2,2.3,9-0.9c2.5-2.1,4.8-1.1,4.8,2.1c0,2.4,5.6,5.1,8.5,4.1c0.9-0.3,2.5-2.3,3.6-4.4l2-3.9l3.3,4
		c4.1,5,9.2,5.4,12.1,0.9c1.6-2.5,1.8-4.7,1.1-10.9c-1.1-9.7-1.4-10.2-4.7-7.9c-1.5,1-4.3,1.9-6.3,1.9c-2,0-5.2,1.4-7.3,3.1
		c-4,3.3-8.4,4-12.5,1.8c-2-1-3-0.9-4.7,0.7c-3.5,3.2-9.1,4.3-13.2,2.7c-3.1-1.3-3.9-1.1-6.2,1.1c-1.4,1.4-3.2,4.3-4,6.3
		c-0.8,2.1-1.8,4.8-2.3,6c-0.7,1.7-0.5,2,1.2,1.4c2.4-0.9,4.3,1.3,4.4,5c0,1.3-2.2,4.6-4.9,7.3c-4.3,4.3-5.5,4.9-8.8,4.1
		c-3.5-0.8-3.8-0.6-3.8,2.4c0,2.8-2.4,10.7-5.6,18.5C284.7,283.8,286.3,284.1,289,281.8L289,281.8z M183.4,262.1
		c0.4,0-0.9-14.7-1.6-18.1c-0.4-2-1.5-2.5-5.5-2.5c-5.8,0-5.7-0.2-3.7,11.8c1.9,11.8,1.7,11.4,6.4,10
		C181.3,262.7,183.3,262.1,183.4,262.1z M327.2,255.9c2.6-13.7,2.4-14.4-3.3-14.5l-4.9-0.1l-0.8,7c-0.4,3.9-1.1,8.8-1.5,11
		c-0.6,3.4-0.3,4,2.3,4.5C325,264.9,325.7,264.3,327.2,255.9L327.2,255.9z M201.7,252.3c-0.6-2.8-1.3-3.8-2.6-3.3
		c-1,0.4-2.4,0.7-3,0.7c-0.7,0,0.4,1.6,2.3,3.6c1.9,2,3.7,3.5,3.8,3.3C202.4,256.4,202.2,254.5,201.7,252.3z M293.9,253.2
		c1.9-3.6,0.7-13.6-1.8-15.1c-1.1-0.6-2-1.9-2-2.9c0-1-0.6-1.8-1.3-1.8c-2.1,0-1.4,5.4,1.3,9.4c2.7,4,3.3,8.8,1.3,10
		c-1.6,1-1.6,3.1,0,3.1C292,255.9,293.2,254.7,293.9,253.2L293.9,253.2z M210,253.5c0-0.6-0.6-1.5-1.3-2c-2-1.2-1.4-6,1.3-10
		c2.9-4.4,3.2-8.1,0.8-8.1c-4.1,0-7.3,13.5-4.5,18.8C207.7,254.7,210,255.5,210,253.5z M303.9,250.4c0-0.2-1.1-0.7-2.5-1.1
		c-1.9-0.5-2.5,0-2.5,1.8c0,2,0.4,2.2,2.5,1.1C302.7,251.4,303.9,250.6,303.9,250.4z M204.8,232.3c0.3-2.1,1.3-2.7,4.1-2.7
		c4.1,0,4.5-0.6,1.8-3.3c-1-1-1.9-3-1.9-4.3c0-2.6-3-3.3-4.4-1.1c-1.6,2.6-2.7,15-1.3,14.6C203.8,235.3,204.6,233.8,204.8,232.3
		L204.8,232.3z M296.2,228.8c-0.5-3.9-1.5-7.6-2.2-8.3c-1.7-1.7-3.9,0-3.9,2.9c0,1.4-0.8,2.8-1.9,3.2c-3,1.1-2.2,3,1.3,3
		c2.2,0,3.5,0.9,4.3,3.1C295.9,238.2,297.2,236.1,296.2,228.8L296.2,228.8z M196.3,226.4c0-0.3-0.8-0.5-1.9-0.5
		c-1,0-1.9,0.5-1.9,1.2c0,0.7,0.8,0.9,1.9,0.5C195.4,227.2,196.3,226.6,196.3,226.4z M306.4,227.9c0-0.3-0.9-0.8-1.9-1.2
		c-1.1-0.4-1.6-0.2-1.2,0.5C304,228.3,306.4,228.9,306.4,227.9z M186.7,223.1c1.7-1.7,3.2-2.2,5.5-1.7l3.2,0.8l-0.7-7.4
		c-0.4-4.1-0.2-8.2,0.4-9.1c0.6-1,0.4-2.4-0.7-3.6c-1.8-2.1-4.6-8.9-6.7-17c-0.8-2.9-3.3-6.9-5.8-9.4c-3.9-3.8-5.3-4.3-11-4.3
		c-7.9,0-14.8,4.4-20.8,13.2c-4.7,6.8-4.8,9.2-0.8,13.2c2.4,2.4,3.9,2.9,6.9,2.3c3.3-0.7,4-0.3,5,2.4c1.7,4.5,5.9,5.5,10.2,2.3
		l3.5-2.6l2.3,4.7c2.6,5.2,7.5,6.8,10.8,3.5c4.1-4.1,6.5-1,2.6,3.3c-3.1,3.5-10.6,3-14.2-0.8c-2.4-2.6-3.7-3-7.5-2.4
		c-3.7,0.6-5.3,0.1-8.4-2.5c-2.1-1.8-5.3-3.2-7-3.2c-1.7,0-4.8-1.4-6.9-3.1l-3.7-3.1l-2.1,5.5c-2,5.1-2,5.8-0.1,9.5
		c1.9,3.7,2.4,3.9,7,3.3c4.1-0.6,5.1-0.2,6.3,2c1.9,3.6,3.5,4.5,7.6,4.6c2.3,0,4.1-1,5.5-3.1c2.7-4.2,5-3.9,6,0.7
		C174.2,227.3,181.6,228.4,186.7,223.1L186.7,223.1z M325.3,223.8c1.3-1.1,2.3-2.8,2.3-3.7c0-3.2,2.7-3.2,5.6,0
		c4,4.3,7.6,4.1,11.9-0.6c2.8-3,4.2-3.6,6.6-3c3.8,1,7.9-1.1,9-4.5c0.4-1.4-0.1-5.4-1.3-8.8l-2.1-6.3l-2.9,3.2
		c-2.6,2.8-5.7,3.8-10.2,3.3c-0.8-0.1-2.1,0.9-2.8,2.2c-1.8,3.3-7.7,5.6-11.3,4.2c-2.3-0.9-3.6-0.4-6.4,2.5
		c-2.3,2.3-4.8,3.5-7.2,3.5c-4.8,0-9.7-3.9-8.6-6.7c0.7-1.9,1.1-1.9,4.4,0.6c4.7,3.5,8.3,2.3,10.4-3.3c1.6-4.5,4-5.6,5.3-2.4
		c0.4,1.2,2.4,1.9,5,1.9c3.7,0,4.5-0.6,5.6-3.8c1.2-3.6,1.6-3.7,6.2-3c4.2,0.7,5.2,0.4,6.9-2.1c3.2-4.5,2.5-7.4-3.4-15
		c-8.8-11.2-20-14.6-28.4-8.6c-4,2.9-8.7,10.8-8.7,14.9c0,3-2.3,8.7-4.8,11.7c-1.2,1.4-2,5.9-2.3,12.3l-0.5,10.1l4.1-0.8
		c3.2-0.6,4.6-0.2,6.5,1.8C317.2,226.4,322.2,226.6,325.3,223.8L325.3,223.8z M201.3,218c0-0.5-0.5-0.9-1.2-0.9
		c-0.7,0-1.2,1.3-1.2,2.8c0,2.3,0.3,2.5,1.2,0.9C200.7,219.8,201.2,218.6,201.3,218z M299.6,217.4c-1.3-1.3-2.1,0.5-1.1,2.9
		c0.9,2.3,1,2.3,1.4,0.1C300.1,219.2,300,217.8,299.6,217.4L299.6,217.4z M283.8,211.7c0-2-0.5-3.2-1.3-2.8
		c-0.7,0.4-1.3,1.6-1.3,2.5s-1.2,2.5-2.6,3.5c-1.8,1.3-2.1,2-0.9,2.4C280.7,218.4,283.8,215.4,283.8,211.7z M222.5,216.6
		c0-1.2-3.7-1.8-4.4-0.7c-0.4,0.7,0.4,1.2,1.8,1.2C221.4,217.1,222.5,216.9,222.5,216.6z M211.4,212.4c0.7-1.9,2.1-5,3.1-7
		c1-1.9,1.8-5,1.8-6.8c0-3.5,4.4-9,7.1-9c0.9,0,1.7,1.1,1.7,2.5c0,1.4,0.6,2.5,1.3,2.5c0.7,0,1.3-1.7,1.3-3.7c0-2,0.5-5.1,1.2-6.9
		c1.2-3.1,1-3.2-3.2-3.2c-3.2,0-5.4,1-8.1,3.7c-3.2,3.2-3.7,4.6-3.7,10.6c0,8-2.9,12.3-7.4,11.1c-2-0.5-2.6-0.1-2.6,2.1
		c0,3.8,2.2,7.6,4.4,7.6C209.2,215.9,210.7,214.3,211.4,212.4L211.4,212.4z M294.6,212.8c1.2-4.6,0.1-6.2-4.1-6.4
		c-3.4-0.2-3.7,0.1-3.2,3.1c0.9,5.6,1.4,6.4,4,6.4C292.9,215.9,294.1,214.8,294.6,212.8L294.6,212.8z M261.9,205.4
		c3-2.2,1.4-4.8-2.4-3.8c-1.6,0.4-3.3,0.1-3.8-0.6c-1.1-1.7-3.2-1.8-3.2-0.1c0,1.5,4.6,6.3,6,6.3
		C259.1,207.1,260.6,206.3,261.9,205.4L261.9,205.4z M279.8,205.2c1.7-1.2,2.8-3.3,2.8-5.3c0-2.6-0.3-3-1.5-1.8
		c-2.2,2.2-7,1.8-8.3-0.7c-0.6-1.2-1.5-4.6-1.9-7.6c-1-6.5-3.5-10.6-7.7-12.5c-3.5-1.6-6.4-0.9-7.4,1.8c-0.8,2,1.2,6.7,2.9,6.7
		c2.8,0,6.5,5.3,7.6,10.7C267.9,205.8,273.7,209.4,279.8,205.2L279.8,205.2z M233.6,203.5c1.3-1.3,2.7-4.8,3.2-7.7
		c0.7-4.1,2.1-6.5,5.9-10.1c6-5.6,6.1-9,0.3-9.6c-5.4-0.5-9.9,5-11.1,13.5c-1.3,9.3-4.9,12.2-9.8,7.8c-2.4-2.1-2.5-2.1-1.6,2.1
		c0.5,2.4,1.5,4.8,2.4,5.3C225.6,206.6,231.2,205.9,233.6,203.5z M202.5,198.2c0-1.1,1.3-4,3-6.3c4.1-6.1,5-10.4,2.6-12.8
		c-4.3-4.3-20.2-6-18.8-2c0.4,1.1,1.7,5.7,3.1,10.3C196.1,200.2,202.4,206.9,202.5,198.2L202.5,198.2z M302.9,198.2
		c1.8-2.8,3.9-7.9,4.7-11.4c0.7-3.4,2-7.4,2.7-8.8c1.3-2.5,1.2-2.6-8.1-2c-6.8,0.4-10.2,1.3-12,2.9c-3.1,2.8-3.2,7.6-0.2,9.3
		c2,1.1,4.9,6.5,7,12.9C297.9,204.5,299.2,203.8,302.9,198.2L302.9,198.2z M248.6,199.1c0.3-1.7-0.1-2.2-1.4-1.7
		c-1,0.4-2.5,0.1-3.3-0.7c-1.9-1.9-4.5,0.7-3.5,3.5C241.6,203.1,248,202.2,248.6,199.1L248.6,199.1z M208.8,199.9
		c0-0.5,0.3-2.3,0.7-4.1c0.7-3,0.6-3-1.3-0.7c-2.2,2.7-2.6,5.7-0.7,5.7C208.2,200.8,208.8,200.4,208.8,199.9z M291.7,197.1
		c-0.4-1.4-1.2-2.8-1.8-3.2c-1.2-0.8-1.5,4.9-0.3,6.1C291.1,201.4,292.4,199.6,291.7,197.1z M279.9,190.8c1.2,0,2.9,0.7,3.8,1.6
		c1.4,1.3,1.5,0.9,0.8-2.2c-0.9-4.1-6-9.4-9-9.4c-1.9,0-1.7,3.8,0.4,12.5c0.8,3.1,0.8,3.1,1.3,0.3
		C277.6,192,278.7,190.8,279.9,190.8L279.9,190.8z M258.8,192c0-2.2-0.5-2.5-3.8-1.8c-3.2,0.7-3.8,0.5-3.8-1.8
		c0-1.4-0.6-2.6-1.3-2.6c-2,0-1.5,4.6,0.7,6.8C253.8,195.6,258.8,195.2,258.8,192L258.8,192z M245.1,190.8c0-0.7-0.6-1.3-1.3-1.3
		c-0.7,0-1.3,0.6-1.3,1.3c0,0.7,0.6,1.3,1.3,1.3C244.5,192.1,245.1,191.5,245.1,190.8z M223.8,175.9c1-0.5,1.9-2.6,1.9-4.6
		c0-3.5-0.3-3.6-5.6-3.6h-5.6l0.4-4.6c0.3-4,0-4.7-2.5-5.3c-1.6-0.4-4-0.5-5.4-0.4c-2.1,0.3-2.4-0.3-2.1-3.8
		c1-10.7-8.6-10.1-19.5,1.1c-4.8,5-6.1,8.9-4.2,13.1c1.3,2.8,2.1,3,9.9,3c11.2,0,17.3,1.8,20.5,6.2
		C214.2,180.7,214.9,180.7,223.8,175.9L223.8,175.9z M285.5,177.9c1.3-3.3,9.2-5.8,18.3-5.8c7.3,0,9.3-0.5,11.5-2.6
		c3.5-3.5,2.4-7.8-3.6-14.1c-10.8-11.2-21.5-11.5-19.4-0.6c0.6,3.1,0.3,3.3-3.4,3.2c-4.9-0.1-7.7,3.1-6.6,7.5c0.7,3,0.6,3.1-3.6,2.3
		c-5.1-1-7.7,1.2-7,5.7c0.3,2.2,1.3,3,4.2,3.3c2.1,0.2,4.3,0.9,4.9,1.6C282.4,180.1,284.7,179.8,285.5,177.9L285.5,177.9z
		 M235.9,173.9c5.1-3.4,11-3.5,13.5,0c1.1,1.5,1.8,1.4,4.8-0.1c2-1,5.2-1.6,7.2-1.3c4.7,0.7,4.5,0.2-1.1-2.6
		c-11.1-5.6-13.4-5.8-22.2-1.6c-6.1,2.9-8.1,4.4-8.1,6.4C230,177.8,230.2,177.7,235.9,173.9L235.9,173.9z M270.1,165.8
		c1.4-1.4,3.6-2.5,5-2.5c1.4,0,2.5-0.8,2.5-1.9c0-1-1.1-1.9-2.5-1.9c-1.4,0-2.5,0.6-2.5,1.3s-1.5,1.1-3.4,0.9
		c-2.9-0.3-3.5,0.1-3.8,3.1C264.8,168.9,266.6,169.3,270.1,165.8z M231.9,163.8c0-1.7-1.1-2.6-3.7-3c-3.2-0.6-3.7-1.2-3.8-5
		c-0.1-4.1-0.3-4.4-3.7-4c-3.5,0.4-3.6,0.3-2.7-4.2c0.6-3.5,0.3-5.2-1.3-7c-2.6-2.9-2.7-2.9-8.7-0.4c-3.9,1.6-4.4,2.2-2.7,3.1
		c1.1,0.6,2.7,3.1,3.5,5.5c1,2.9,2.2,4.4,3.8,4.4c2.4,0,7.9,5.9,6.9,7.5c-0.3,0.5,1.7,1.6,4.4,2.4c2.7,0.8,5,2.1,5,2.8
		c0,0.7,0.7,1.1,1.6,0.8C231.2,166.5,231.9,165.2,231.9,163.8z M260.5,163.8c1.3-1.3-0.3-2.9-2.3-2.1c-1,0.4-1.5,1.2-1.1,1.8
		C257.8,164.8,259.3,164.9,260.5,163.8z M241.1,160.6c0.3-1.4-0.6-2.2-2.5-2.5c-2.5-0.3-2.9-1.1-2.9-5.4c0-4.2-0.4-5.1-2.8-5.4
		c-2.9-0.4-3.3-1.7-1.6-5.9c2.1-5.3-3.7-8.7-10.4-6.1c-1.7,0.7-1.8,1-0.1,3.4c1,1.5,1.9,3.9,1.9,5.4c0,1.6,1,3.1,2.4,3.5
		c1.3,0.4,3.1,2.7,4,5.1c0.9,2.4,2.5,4.6,3.7,5c1.2,0.4,2.5,1.8,3,3.2C236.7,163.9,240.5,163.6,241.1,160.6L241.1,160.6z
		 M272.1,155.8c6.9,0,8.2-0.6,7.2-3.3c-0.4-1.1-2.6-1.8-5.9-1.7c-5.2,0-28.4,3.4-29.3,4.3c-0.3,0.3,0.1,1.6,0.8,2.9
		c1.3,2.4,1.4,2.4,11,0.1C261.3,156.9,268.6,155.8,272.1,155.8L272.1,155.8z M287.6,151.9c0-0.6-0.8-1.1-1.9-1.1s-1.9,0.8-1.9,1.8
		c0,1.1,0.7,1.6,1.9,1.1C286.8,153.4,287.6,152.5,287.6,151.9z M272,147.3c15.1-0.8,16.3-1,16.3-3.4c0-2.3-1-2.5-13.1-2.9
		c-12.7-0.4-31.7,1.5-34.9,3.4c-1.2,0.7-1.2,1.7-0.1,4.1l1.4,3.1l7.1-1.8C252.5,148.9,263,147.8,272,147.3L272,147.3z M246.1,138.9
		c9.2-1.9,40.2-2.8,45-1.3c2.8,0.9,5.9-2.1,4.8-4.8c-1.2-3.1-10.8-4.9-26.5-5c-14,0-30.6,2-34.1,4.1c-1.2,0.7-1.2,1.8,0,4.9
		c0.8,2.2,1.5,4,1.5,4C236.9,140.8,241.1,139.9,246.1,138.9L246.1,138.9z M217.5,132.4l11.9-4.3l-10,0.6
		c-13.3,0.8-18.1,2.6-18.1,6.7c0,2.5,0.4,3,2.2,2.2C204.7,137.2,211,134.8,217.5,132.4z M99.7,350.4l-3.4-5.6l3.4,0.6
		c2.6,0.5,6-1.1,14.9-6.8c9.6-6.2,11.4-7.9,10.8-10c-1.1-4.2,0.4-3,4.5,3.7c2.1,3.4,3.3,6.3,2.7,6.3c-0.6,0-1.5-0.6-2-1.3
		c-1.1-1.8-3.1-0.9-15.9,7.2c-8.9,5.6-10.9,7.4-10.3,9.3C105.7,357.9,103.1,356.1,99.7,350.4L99.7,350.4z M397.4,345.5
		c-3.3-2.5-2.7-3.6,1.5-2.7c4.1,0.9,6.3-1.7,6.3-7.4c0-5.7-3.7-6.1-13.1-1.4c-7.8,3.9-8.8,4.1-12.4,2.7c-7.1-2.9-7.6-11.1-1-18.5
		c3.1-3.4,3.8-3.7,6.2-2.4c4,2.1,3.4,3.9-1,3.1c-3.3-0.7-3.9-0.3-5.5,3.3c-3.9,9.4,1.2,11.9,12.8,6.4c9.2-4.3,13.9-3.7,16.4,2.2
		c1.5,3.7-0.1,9.2-4.1,14.2C401.5,347.6,400.3,347.7,397.4,345.5L397.4,345.5z M89,331.7c-0.8-1.9-1.5-3.9-1.5-4.6
		c0-0.7,3.4-6.6,7.5-13.1c4.1-6.6,7.5-12.4,7.5-13c0-0.6-4.5,0.7-10,2.7c-8.1,3.1-10,4.3-10.1,6.4c0,2.5-0.2,2.4-1.7-0.5
		c-0.9-1.7-2.1-4.5-2.6-6.3c-0.9-3-0.9-3.1,1.5-1c2.3,2.1,3.1,1.9,17.2-3.5c8.2-3.1,15.1-5.4,15.4-5.1c0.3,0.3-3.6,7.2-8.8,15.3
		c-5.1,8.1-9.2,15-8.9,15.3c0.2,0.3,5.5-1.4,11.7-3.7c8.4-3.1,11.3-4.8,11.3-6.4c0-3.6,1.9-2.6,3.5,1.9c2,5.6,1.9,6.1-0.8,4.4
		c-3.6-2.2-28,7.4-28.9,11.4C90.5,335.1,90.5,335.1,89,331.7L89,331.7z M415,315.7c-0.3-2.2-2.7-3.5-13.4-7.1
		c-10.4-3.5-13.5-4.1-15.3-2.9c-3.3,2.1-3.3,2-1.2-4.8c2-6.3,3.8-8.2,3.8-3.9c0,3.5,26.6,12.5,29.6,10c1.8-1.5,2-1.3,1.2,1.7
		c-1.2,4.7-3.2,9.8-3.8,9.8C415.6,318.4,415.2,317.2,415,315.7z M419.9,296.2c-4.2-0.5-4.5-2.4-0.4-3.5c2-0.5,3.2-1.9,3.6-4.1
		c0.4-1.8,0.4-3.6,0.1-3.8c-0.3-0.3-6.8-1.6-14.5-2.9l-14-2.4l-2.3,2.9c-2.3,2.9-2.3,2.9-1.5-3.4c0.9-7.1,2.9-11.9,3-7.2
		c0,1.5,0.2,2.8,0.4,2.8c0.2,0,6.8,1.1,14.7,2.4c7.9,1.3,14.8,2.1,15.3,1.8c2.1-1.3,0.9-7.7-1.9-9.6c-2.8-2-2.8-2,1.3-2
		c3.6-0.1,4.1,0.3,4.1,3.4c0,3.1-3.6,25.9-4.2,26C423.4,296.6,421.8,296.4,419.9,296.2L419.9,296.2z M73.8,263.9
		c-4.6-5.9-3.2-15,2.5-15.8c4.5-0.7,4.8,1.2,0.5,2.8c-5.9,2.2-3.4,13.5,2.7,12.3c1.2-0.2,4.4-3.7,7-7.7c5.7-8.6,9.2-10.6,14.5-8.4
		c4.6,1.9,6.8,7.6,5.6,14.9c-0.7,4.7-1.2,5.2-4.4,5.2c-4.4,0-4.7-2.2-0.5-3.2c3.7-0.9,4.3-5.8,1.1-10.3c-3.1-4.5-6.6-3-12.3,5.4
		c-4.5,6.6-5.7,7.6-9.6,7.9C77.3,267.2,76,266.6,73.8,263.9L73.8,263.9z M393.9,255.1c0-4.8,0.3-5.5,1.7-4.3c1.3,1.1,3,1,6.9-0.6
		c5.1-2.1,5.2-2.2,4.8-7.7c-0.4-5.5-0.5-5.7-6-7.3c-3.1-0.9-5.8-1.7-5.9-1.7c-0.2,0-0.3,0.8-0.3,1.9c0,1-0.6,1.9-1.3,1.9
		c-0.7,0-1.2-2.7-1.2-5.9c0-5.8,0.1-5.9,2.2-3.3c1.3,1.7,8.2,4.7,18.1,8.1c8.8,3,15.9,6.1,16,6.9c0,1.3-28.6,14.2-31.4,14.2
		c-0.6,0-1.1,0.8-1.1,1.9s-0.6,1.9-1.3,1.9C394.5,260.9,393.9,258.3,393.9,255.1L393.9,255.1z M421.5,242c0-0.8-8.7-3.6-11.1-3.6
		c-1.4,0-2,6.5-0.8,7.8C410.4,246.9,421.5,243.1,421.5,242z M72,230.9c0.4-2.4,1.2-5.8,1.7-7.5c0.8-3,0.9-3,1.7-0.5
		c0.7,2.2,2.8,3,11.1,4.7c5.7,1.1,11.7,2,13.5,2c3.9,0,6.8-3,7.9-8.2c1.4-6.6-1.8-9-16.1-11.7c-11.6-2.2-12.5-2.3-14-0.3
		c-1.4,1.9-1.6,1.9-1.6,0.1c0-1.1,0.3-3.8,0.7-5.9c0.8-4.2,3-5.4,3-1.6c0,1.9,2.1,2.7,12.1,4.6c14.9,2.8,17.9,5.1,17.9,13.9
		c0,6.8-3.1,12.9-7.2,13.9c-1.5,0.4-8.5-0.3-15.4-1.5c-12.3-2.2-12.6-2.1-14.4,0.2C71.4,235.1,71.3,234.9,72,230.9L72,230.9z
		 M388.6,213.2c-2.7-8.9-2.7-9.4,0.2-6.8c2.3,2,3,2,14.8-1.2c15.7-4.2,15.9-4.4,14.4-8.9c-0.9-2.6-2.2-3.8-4.8-4.2
		c-3.9-0.7-3.2-1.6,2.1-2.9c3.2-0.8,3.3-0.6,6.9,13.3l3.7,14.1l-3.6,1c-4.7,1.3-5.7,0.3-2.4-2.5c1.9-1.6,2.4-3.1,1.9-5.7
		c-0.4-1.9-1.2-3.4-1.9-3.4c-1,0-17.5,4.4-26.3,7c-1.2,0.3-2.3,2.1-2.5,4C390.8,219.6,390.4,219,388.6,213.2L388.6,213.2z
		 M113.6,199.7c-0.4-2.4-2.8-4-13.5-8.6c-10.8-4.7-13.4-5.4-15.3-4.2c-3.1,1.9-3,1.6,1.3-7.9c5.6-12.3,12.8-15,19-7.1
		c2.5,3.2,2.6,6,0.5,13.4c-0.6,2.1,0.2,3,4.3,4.9c4.9,2.2,5.2,2.2,7.6,0c3.2-2.9,3.1-1.6-0.5,6.3C114.5,201.8,114,202.3,113.6,199.7
		L113.6,199.7z M104.4,181.8c0.7-3.4,0.3-4.4-2.5-6.9c-4-3.4-8.4-3.7-11-0.7c-4,4.5-3.4,5.8,3.9,9.2c3.9,1.8,7.4,3.1,7.9,2.8
		C103.1,186,103.9,184,104.4,181.8L104.4,181.8z M379.8,188.9c-2.6-5.5-2.8-7.7-0.4-5.7c1.3,1.1,4.8,0,14.9-4.5
		c11.2-5,13.3-6.4,13.7-9.1c0.4-2.8,0.8-2.4,3.2,2.9c3.3,7.4,3.3,7.5,0.3,5.9c-3.4-1.8-27.6,9.3-27.6,12.6
		C383.9,194.7,382.1,193.7,379.8,188.9L379.8,188.9z M126.2,171.9c0-4.4-21.7-20.4-25.2-18.5c-3.8,2-2.7-0.4,3.7-8.3
		c6.7-8.3,10.5-9.7,15.3-5.8c2.2,1.8,2.9,3.6,2.8,6.9l-0.1,4.5h8.7c4.8,0,9.8-0.6,11.1-1.3c3-1.6,3-0.2,0,3.5
		c-2.1,2.5-3.5,2.8-13.1,2.8c-5.9,0-10.7,0.4-10.7,0.9c0,0.5,2.2,2.5,4.9,4.4c3.8,2.7,5.7,3.3,8.4,2.6l3.5-0.9l-4.3,5.5
		c-2.3,3-4.4,5.8-4.6,6C126.4,174.8,126.2,173.6,126.2,171.9z M118.5,154.3c2.1-2.1,1.9-7.3-0.6-10c-2.9-3.2-8.5-2.9-10.7,0.5
		c-1.7,2.6-1.6,3,3.3,6.8C116.3,156.3,116.4,156.3,118.5,154.3L118.5,154.3z M371.9,171.5c2.1-5.6,9.8-32.1,9.4-32.5
		c-0.3-0.2-4.7,2.7-9.8,6.5c-7.9,5.8-9.3,7.4-9.1,10.2c0.3,3.2,0.2,3.2-3.4-1.1c-2-2.4-3.7-4.8-3.7-5.3c0-1.4,2.2-1.1,3.1,0.4
		c0.5,0.8,3.4-0.6,7.3-3.4c3.6-2.6,8.9-6.3,11.8-8.3c4-2.7,5.3-4.4,5.3-7l0-3.4l2.4,3.1c3.2,4.1,3.2,4.6-1.8,20.3
		c-2.3,7.4-3.8,13.4-3.3,13.4c0.5,0,4.6-2.8,9.2-6.2c6.9-5.2,8.1-6.7,7.5-9.1c-0.7-2.9-0.3-2.6,6.4,6.3c1,1.3,0.5,1.5-2.1,0.8
		c-2.8-0.7-5.2,0.5-14.8,7.5C373.1,173.5,370.6,174.9,371.9,171.5L371.9,171.5z M147.1,144.6c0.5-1.8-1.9-5.5-8.6-13.2
		c-8-9.3-9.6-10.6-12.3-10c-2.5,0.6-1.8-0.5,3.8-5.7c3.8-3.5,8.2-7.3,9.8-8.4c2.7-1.9,3.1-1.8,5.6,0.8l2.7,2.8l-4.4-0.8
		c-3.8-0.7-4.9-0.3-8.1,3.1l-3.7,3.9l5,5l5,5l3.5-3c2.8-2.4,3.3-3.7,2.7-5.9c-0.8-2.7-0.6-2.7,3,0.8c4.5,4.2,4.9,5.7,1.5,4.8
		c-2.5-0.7-8.8,3.1-8.8,5.2c0,0.7,1.9,3.4,4.3,6.1l4.3,4.8l4.6-3.5c3.7-2.8,4.5-4.1,4-7c-0.6-4.2,0.9-4.6,2.9-0.7
		c1.4,2.5,0.8,3.4-7.1,10.6c-4.7,4.3-9,7.9-9.5,7.9C146.8,147,146.8,145.9,147.1,144.6L147.1,144.6z M342.4,138.4
		c-7.4-4.7-9.8-8.3-9.8-14.6c0-9.4,9.6-19.3,18.6-19.3c4.6,0,10.9,3.1,16.1,7.9c3.4,3.2,3.5,4.4,0.2,8.4l-2.5,3.1l0.7-5
		c0.7-4.6,0.4-5.2-3.4-7.8c-8.5-5.7-19.1-2.2-23.6,8c-1.5,3.4-2.2,6.9-1.8,8.7c0.7,2.9,7.6,10.5,9.5,10.5c1.9,0,5.1-6.4,4.3-8.8
		c-1.1-3.5,0.6-3,6.3,2.1c4.7,4.2,4.8,4.4,1.6,3.7c-2.8-0.6-3.9-0.1-6.2,3c-1.5,2.1-3.1,3.8-3.6,3.8
		C348.5,142,345.6,140.4,342.4,138.4L342.4,138.4z M170,126c0-0.5,0.6-1.6,1.3-2.3c0.9-0.9-0.8-5.6-5-14.6
		c-5.2-11-6.8-13.4-9.1-13.4c-2.3,0-1.9-0.5,2-2.6l4.8-2.5l10.5,9.6l10.5,9.6l-0.1-4.2c0-2.3-0.5-8.6-1-14.1l-0.9-9.9l3.8-2.3
		c4.9-3,6.1-2.9,4.2,0.1c-1.3,2.1-0.7,4.2,4.6,15c5.9,12,6.8,13.1,10.3,12.6c3.2-0.4,1.4,1.2-4.7,4.3c-5.8,2.9-8,2.9-5-0.2
		c0.9-0.9-0.5-5-4.3-13.1l-5.6-11.8l0.7,14.4c0.4,7.9,0.9,15.1,1.2,16c0.3,0.9,0.1,1.6-0.3,1.6c-0.8,0-20.4-17.3-21.9-19.4
		c-2.7-3.7-0.4,3.1,4,11.8c4.1,8.2,5.5,10,8.3,10.3c3.1,0.4,2.9,0.6-2.5,3.2C172.6,125.7,170,126.6,170,126L170,126z M313.9,118.9
		c-4.8-2.6-5.2-3-2.5-3.1c2.7-0.1,4-1.9,9.8-13.3c5.3-10.5,6.3-13.6,5.2-15c-2.1-2.5-0.1-2.1,6.3,1.3c4.8,2.6,5.2,3,2.5,3.1
		c-2.7,0.1-4.1,2-9.9,13.1c-5.8,11.1-6.6,13.3-5.2,15C322.3,122.8,320.5,122.4,313.9,118.9z M280.1,106.6c-8.6-2.5-9.1-2.8-6.1-3.8
		c2.1-0.7,3.6-2.4,4-4.4c0.4-1.8,2.1-7.9,3.7-13.6c2.6-9.1,2.8-10.6,1.2-12.2c-2.5-2.5-0.6-2.4,9.6,0.7c4.6,1.4,9.9,3.6,11.6,5
		c4.7,3.7,6.5,10.2,4.7,16.7c-1.8,6.5-3.4,8.6-8.8,11.9C294.8,110.1,292.1,110.1,280.1,106.6L280.1,106.6z M296.5,105.1
		c4.2-2.2,8.5-10.2,8.6-15.9c0-6.2-3.1-10.5-9.4-12.6c-4.3-1.5-5.9-1.6-6.2-0.4c-0.3,0.8-2,6.9-3.9,13.4c-1.8,6.5-3.6,12.6-3.9,13.4
		c-0.3,0.9,1.2,2,3.6,2.7C291.2,107.3,292.3,107.3,296.5,105.1L296.5,105.1z M210,105.8c1-0.7,4.7-9,8.2-18.4l6.3-17.2l5-0.8
		c16.1-2.6,15.3-2.6,16.2,0.9c1.1,4.4-0.2,5.3-2.6,1.9c-1.6-2.3-2.7-2.6-6.5-1.9c-2.5,0.5-4.8,1-5,1.2c-0.2,0.2,0,3.5,0.5,7.3
		c0.7,5.8,1.3,7,3.3,7c3.6,0,7.3-2.3,7.3-4.5c0-1,0.6-1.6,1.3-1.1c0.7,0.4,1.2,3.1,1.2,6c0,4.6-0.2,5-1.7,3.1
		c-1-1.3-3.3-2.2-5.8-2.2h-4.1l0.7,7c0.4,3.9,0.9,7.2,1.1,7.4c0.2,0.2,2.8,0.1,5.6-0.3c4.1-0.6,5.3-1.3,5.9-3.7
		c1-4.2,3.2-3.7,3.2,0.7c0,4-0.6,4.2-13.1,5.8c-3.4,0.4-7.4,1.1-8.8,1.5c-2.4,0.7-2.4,0.6-0.3-1.8c1.7-1.9,2-3.7,1.4-8.3
		c-0.7-4.9-1.2-5.8-3.5-5.8c-3.8,0-6.4,2.4-8,7.4c-1.9,5.7-1.8,7.6,0.5,7.6c1,0,1.9,0.5,1.9,1s-2.7,1.1-5.9,1.3
		C209.8,107,208.7,106.7,210,105.8L210,105.8z M225.6,87.5c1.4-0.5,2-2.4,2-5.9c0-8.4-1.8-9.1-4.1-1.6
		C220.5,88.9,220.7,89.4,225.6,87.5L225.6,87.5z"/>
</g>
</svg>
